G04*
G04 #@! TF.GenerationSoftware,Altium Limited,Altium Designer,20.1.12 (249)*
G04*
G04 Layer_Color=8388736*
%FSLAX44Y44*%
%MOMM*%
G71*
G04*
G04 #@! TF.SameCoordinates,5963EE20-531D-4955-9439-85CF453D8019*
G04*
G04*
G04 #@! TF.FilePolarity,Negative*
G04*
G01*
G75*
%ADD25R,1.1432X1.0332*%
%ADD26R,1.2532X0.8032*%
%ADD27R,1.0332X1.1432*%
%ADD28R,1.0032X1.0032*%
%ADD29R,0.8032X1.2532*%
%ADD30R,1.2032X1.2032*%
%ADD31R,0.8032X1.0032*%
%ADD32R,1.7292X0.8532*%
%ADD33R,1.0032X0.8032*%
%ADD34R,1.6270X0.6618*%
%ADD35C,1.8032*%
%ADD36R,1.8032X1.8032*%
%ADD37C,1.7232*%
%ADD38R,1.7232X1.7232*%
%ADD39C,1.3232*%
%ADD40C,1.5132*%
%ADD41R,1.8032X1.8032*%
%ADD42C,0.7016*%
D25*
X653000Y241108D02*
D03*
Y254307D02*
D03*
X53000Y302358D02*
D03*
Y315557D02*
D03*
X709270Y349400D02*
D03*
Y362600D02*
D03*
X693828D02*
D03*
Y349400D02*
D03*
X600443Y334165D02*
D03*
Y347365D02*
D03*
X585000D02*
D03*
Y334165D02*
D03*
X246000Y390400D02*
D03*
Y403600D02*
D03*
X195000Y390400D02*
D03*
Y403600D02*
D03*
X676527Y447600D02*
D03*
Y434400D02*
D03*
D26*
X679000Y270500D02*
D03*
Y280000D02*
D03*
Y289500D02*
D03*
X653000D02*
D03*
Y270500D02*
D03*
D27*
X39400Y374992D02*
D03*
X52600D02*
D03*
X90600Y296965D02*
D03*
X77400D02*
D03*
X41600Y195000D02*
D03*
X28400D02*
D03*
X697820Y448592D02*
D03*
X711020D02*
D03*
X601393Y362257D02*
D03*
X588192D02*
D03*
X62400Y444000D02*
D03*
X75600D02*
D03*
X62400Y428000D02*
D03*
X75600D02*
D03*
X62400Y412557D02*
D03*
X75600D02*
D03*
X135892Y369239D02*
D03*
X122692D02*
D03*
D28*
X76263Y312708D02*
D03*
X92263D02*
D03*
X92000Y369239D02*
D03*
X108000D02*
D03*
D29*
X52500Y358000D02*
D03*
X43000D02*
D03*
X33500D02*
D03*
Y332000D02*
D03*
X52500D02*
D03*
D30*
X621000Y306000D02*
D03*
X601000Y308000D02*
D03*
X672000Y306000D02*
D03*
X601000Y388000D02*
D03*
X585000Y451000D02*
D03*
D31*
X583000Y378000D02*
D03*
Y388000D02*
D03*
X584243Y421000D02*
D03*
Y431000D02*
D03*
X677227Y409207D02*
D03*
Y419207D02*
D03*
D32*
X602915Y447050D02*
D03*
Y434350D02*
D03*
Y421650D02*
D03*
Y408950D02*
D03*
X657155D02*
D03*
Y421650D02*
D03*
Y434350D02*
D03*
Y447050D02*
D03*
X620215Y362050D02*
D03*
Y349350D02*
D03*
Y336650D02*
D03*
Y323950D02*
D03*
X674455D02*
D03*
Y336650D02*
D03*
Y349350D02*
D03*
Y362050D02*
D03*
D33*
X643000Y306938D02*
D03*
X653000D02*
D03*
D34*
X138098Y439750D02*
D03*
Y433250D02*
D03*
Y426750D02*
D03*
Y420250D02*
D03*
X93902D02*
D03*
Y426750D02*
D03*
Y433250D02*
D03*
Y439750D02*
D03*
D35*
X104642Y337700D02*
D03*
X613100Y16800D02*
D03*
X587700D02*
D03*
X562300D02*
D03*
X536900D02*
D03*
X511500D02*
D03*
X384500D02*
D03*
X308300D02*
D03*
X282900D02*
D03*
X257500D02*
D03*
X206700D02*
D03*
X181300D02*
D03*
X130500D02*
D03*
X79700D02*
D03*
X54300D02*
D03*
X105100D02*
D03*
X155900D02*
D03*
X232100D02*
D03*
X333700D02*
D03*
X359100D02*
D03*
X409900D02*
D03*
X435300D02*
D03*
X460700D02*
D03*
X486100D02*
D03*
X613100Y270800D02*
D03*
X587700D02*
D03*
X562300D02*
D03*
X536900D02*
D03*
X511500D02*
D03*
X384500D02*
D03*
X308300D02*
D03*
X282900D02*
D03*
X257500D02*
D03*
X206700D02*
D03*
X181300D02*
D03*
X130500D02*
D03*
X79700D02*
D03*
X54300D02*
D03*
X105100D02*
D03*
X155900D02*
D03*
X232100D02*
D03*
X333700D02*
D03*
X359100D02*
D03*
X409900D02*
D03*
X435300D02*
D03*
X460700D02*
D03*
X486100D02*
D03*
X182900Y431000D02*
D03*
X208300D02*
D03*
X233700D02*
D03*
X102300Y394231D02*
D03*
X16000Y438700D02*
D03*
X701220Y423150D02*
D03*
X182900Y361000D02*
D03*
X208300D02*
D03*
X233700D02*
D03*
D36*
X79243Y337700D02*
D03*
X28900Y16800D02*
D03*
Y270800D02*
D03*
X259100Y431000D02*
D03*
X127700Y394231D02*
D03*
X259100Y361000D02*
D03*
D37*
X435300Y67600D02*
D03*
X409900D02*
D03*
X308300D02*
D03*
X257500D02*
D03*
X181300D02*
D03*
X79700D02*
D03*
X54300D02*
D03*
X105100D02*
D03*
X130500D02*
D03*
X155900D02*
D03*
X206700D02*
D03*
X232100D02*
D03*
X282900D02*
D03*
X333700D02*
D03*
X359100D02*
D03*
X384500D02*
D03*
X460700D02*
D03*
X486100D02*
D03*
X511500D02*
D03*
X536900D02*
D03*
X562300D02*
D03*
X587700D02*
D03*
X613100D02*
D03*
X435300Y220000D02*
D03*
X409900D02*
D03*
X308300D02*
D03*
X257500D02*
D03*
X181300D02*
D03*
X79700D02*
D03*
X54300D02*
D03*
X105100D02*
D03*
X130500D02*
D03*
X155900D02*
D03*
X206700D02*
D03*
X232100D02*
D03*
X282900D02*
D03*
X333700D02*
D03*
X359100D02*
D03*
X384500D02*
D03*
X460700D02*
D03*
X486100D02*
D03*
X511500D02*
D03*
X536900D02*
D03*
X562300D02*
D03*
X587700D02*
D03*
X613100D02*
D03*
D38*
X28900Y67600D02*
D03*
Y220000D02*
D03*
D39*
X732852Y417600D02*
D03*
X758252Y443000D02*
D03*
X783652Y417600D02*
D03*
Y335000D02*
D03*
X758252Y360400D02*
D03*
X732852Y335000D02*
D03*
D40*
X551000Y440000D02*
D03*
X321000D02*
D03*
Y330000D02*
D03*
X551000D02*
D03*
D41*
X16000Y413300D02*
D03*
X701220Y397750D02*
D03*
D42*
X689000Y324000D02*
D03*
X684000Y371000D02*
D03*
X9000Y313000D02*
D03*
X14000Y173000D02*
D03*
X143000Y361000D02*
D03*
X151419Y427581D02*
D03*
X640906Y409094D02*
D03*
X48000Y436000D02*
D03*
X688000Y444000D02*
D03*
M02*
