G04*
G04 #@! TF.GenerationSoftware,Altium Limited,Altium Designer,20.1.12 (249)*
G04*
G04 Layer_Color=16711935*
%FSLAX44Y44*%
%MOMM*%
G71*
G04*
G04 #@! TF.SameCoordinates,5963EE20-531D-4955-9439-85CF453D8019*
G04*
G04*
G04 #@! TF.FilePolarity,Positive*
G04*
G01*
G75*
%ADD10C,0.2000*%
%ADD11C,0.1000*%
%ADD12C,0.1524*%
G36*
X86593Y312708D02*
X81763Y315707D01*
Y309708D01*
X86593Y312708D01*
D02*
G37*
G36*
X102330Y369239D02*
X97500Y372239D01*
Y366239D01*
X102330Y369239D01*
D02*
G37*
D10*
X725253Y452200D02*
X791253D01*
Y382300D02*
Y452200D01*
X725253Y382300D02*
X791253D01*
X725253D02*
Y452200D01*
Y299700D02*
Y369600D01*
Y299700D02*
X791253D01*
Y369600D01*
X725253D02*
X791253D01*
X538300Y452700D02*
X563700D01*
Y427300D02*
Y452700D01*
X538300Y427300D02*
X563700D01*
X538300D02*
Y452700D01*
X308300D02*
X333700D01*
Y427300D02*
Y452700D01*
X308300Y427300D02*
X333700D01*
X308300D02*
Y452700D01*
Y342700D02*
X333700D01*
Y317300D02*
Y342700D01*
X308300Y317300D02*
X333700D01*
X308300D02*
Y342700D01*
X538300D02*
X563700D01*
Y317300D02*
Y342700D01*
X538300Y317300D02*
X563700D01*
X538300D02*
Y342700D01*
D11*
X649000Y239708D02*
Y255707D01*
X657000D01*
Y239708D02*
Y255707D01*
X649000Y239708D02*
X657000D01*
X658000Y265500D02*
X674000D01*
X658000D02*
Y294500D01*
X674000D01*
Y265500D02*
Y294500D01*
X664500Y265500D02*
X674000Y275000D01*
X38000Y378993D02*
X54000D01*
Y370993D02*
Y378993D01*
X38000Y370993D02*
X54000D01*
X38000D02*
Y378993D01*
X76000Y292965D02*
X92000D01*
X76000D02*
Y300965D01*
X92000D01*
Y292965D02*
Y300965D01*
X49000Y300958D02*
Y316957D01*
X57000D01*
Y300958D02*
Y316957D01*
X49000Y300958D02*
X57000D01*
X76263Y308708D02*
X92263D01*
X76263D02*
Y316707D01*
X92263D01*
Y308708D02*
Y316707D01*
X57500Y337000D02*
Y353000D01*
X28500Y337000D02*
X57500D01*
X28500D02*
Y353000D01*
X57500D01*
X48000D02*
X57500Y343500D01*
X66543Y350400D02*
X117343D01*
Y325000D02*
Y350400D01*
X66543Y325000D02*
X117343D01*
X66543D02*
Y350400D01*
X580500Y378000D02*
Y388000D01*
X585500D01*
Y378000D02*
Y388000D01*
X580500Y378000D02*
X585500D01*
X581743Y421000D02*
Y431000D01*
X586743D01*
Y421000D02*
Y431000D01*
X581743Y421000D02*
X586743D01*
X27000Y191000D02*
X43000D01*
X27000D02*
Y199000D01*
X43000D01*
Y191000D02*
Y199000D01*
X13700Y55100D02*
Y80100D01*
Y55100D02*
X628300D01*
Y80100D01*
X13700D02*
X628300D01*
X16200Y29500D02*
X625800D01*
X16200Y4100D02*
Y29500D01*
X625800Y4100D02*
Y29500D01*
X16200Y4100D02*
X625800D01*
X16200Y283500D02*
X625800D01*
X16200Y258100D02*
Y283500D01*
X625800Y258100D02*
Y283500D01*
X16200Y258100D02*
X625800D01*
X13700Y207500D02*
Y232500D01*
Y207500D02*
X628300D01*
Y232500D01*
X13700D02*
X628300D01*
X610535Y452510D02*
X649535D01*
Y403490D02*
Y452510D01*
X610535Y403490D02*
X649535D01*
X610535D02*
Y452510D01*
Y439810D02*
X623235Y452510D01*
X712420Y444593D02*
Y452593D01*
X696420D02*
X712420D01*
X696420Y444593D02*
Y452593D01*
Y444593D02*
X712420D01*
X674727Y409207D02*
Y419207D01*
X679727D01*
Y409207D02*
Y419207D01*
X674727Y409207D02*
X679727D01*
X705270Y364000D02*
X713270D01*
X705270Y348000D02*
Y364000D01*
Y348000D02*
X713270D01*
Y364000D01*
X697828Y348000D02*
Y364000D01*
X689827Y348000D02*
X697828D01*
X689827D02*
Y364000D01*
X697828D01*
X643000Y309438D02*
X653000D01*
Y304438D02*
Y309438D01*
X643000Y304438D02*
X653000D01*
X643000D02*
Y309438D01*
X596442Y332765D02*
Y348765D01*
X604442D01*
Y332765D02*
Y348765D01*
X596442Y332765D02*
X604442D01*
X581000D02*
X589000D01*
Y348765D01*
X581000D02*
X589000D01*
X581000Y332765D02*
Y348765D01*
X586792Y358257D02*
Y366258D01*
Y358257D02*
X602793D01*
Y366258D01*
X586792D02*
X602793D01*
X242000Y389000D02*
Y405000D01*
X250000D01*
Y389000D02*
Y405000D01*
X242000Y389000D02*
X250000D01*
X191000D02*
Y405000D01*
X199000D01*
Y389000D02*
Y405000D01*
X191000Y389000D02*
X199000D01*
X170200Y418300D02*
X271800D01*
X170200Y443700D02*
X271800D01*
Y418300D02*
Y443700D01*
X170200Y418300D02*
Y443700D01*
X89600Y381531D02*
X140400D01*
X89600D02*
Y406931D01*
X140400D01*
Y381531D02*
Y406931D01*
X3300Y400600D02*
Y451400D01*
X28700D01*
Y400600D02*
Y451400D01*
X3300Y400600D02*
X28700D01*
X61000Y448000D02*
X77000D01*
Y440000D02*
Y448000D01*
X61000Y440000D02*
X77000D01*
X61000D02*
Y448000D01*
Y432000D02*
X77000D01*
Y424000D02*
Y432000D01*
X61000Y424000D02*
X77000D01*
X61000D02*
Y432000D01*
Y416558D02*
X77000D01*
Y408558D02*
Y416558D01*
X61000Y408558D02*
X77000D01*
X61000D02*
Y416558D01*
X121292Y365239D02*
Y373239D01*
Y365239D02*
X137292D01*
Y373239D01*
X121292D02*
X137292D01*
X92000Y365239D02*
X108000D01*
X92000D02*
Y373239D01*
X108000D01*
Y365239D02*
Y373239D01*
X680527Y433000D02*
Y449000D01*
X672527Y433000D02*
X680527D01*
X672527D02*
Y449000D01*
X680527D01*
X688520Y385050D02*
Y435850D01*
X713920D01*
Y385050D02*
Y435850D01*
X688520Y385050D02*
X713920D01*
X627835Y367510D02*
X666835D01*
Y318490D02*
Y367510D01*
X627835Y318490D02*
X666835D01*
X627835D02*
Y367510D01*
Y354810D02*
X640535Y367510D01*
X170200Y348300D02*
X271800D01*
X170200Y373700D02*
X271800D01*
Y348300D02*
Y373700D01*
X170200Y348300D02*
Y373700D01*
D12*
X112952Y445494D02*
G03*
X119048Y445494I3048J0D01*
G01*
X100506Y414506D02*
Y445494D01*
X112952D01*
X119048D01*
X131494D01*
Y414506D02*
Y445494D01*
X100506Y414506D02*
X131494D01*
Y441684D02*
X141400D01*
Y437874D02*
Y441684D01*
X131494Y437874D02*
X141400D01*
X131494D02*
Y441684D01*
Y435080D02*
X141400D01*
Y431270D02*
Y435080D01*
X131494Y431270D02*
X141400D01*
X131494D02*
Y435080D01*
Y428730D02*
X141400D01*
Y424920D02*
Y428730D01*
X131494Y424920D02*
X141400D01*
X131494D02*
Y428730D01*
Y422126D02*
X141400D01*
Y418316D02*
Y422126D01*
X131494Y418316D02*
X141400D01*
X131494D02*
Y422126D01*
X90600Y418316D02*
X100506D01*
X90600D02*
Y422126D01*
X100506D01*
Y418316D02*
Y422126D01*
X90600Y424920D02*
X100506D01*
X90600D02*
Y428730D01*
X100506D01*
Y424920D02*
Y428730D01*
X90600Y431270D02*
X100506D01*
X90600D02*
Y435080D01*
X100506D01*
Y431270D02*
Y435080D01*
X90600Y437874D02*
X100506D01*
X90600D02*
Y441684D01*
X100506D01*
Y437874D02*
Y441684D01*
M02*
