G04*
G04 #@! TF.GenerationSoftware,Altium Limited,Altium Designer,20.1.12 (249)*
G04*
G04 Layer_Physical_Order=2*
G04 Layer_Color=16711680*
%FSLAX44Y44*%
%MOMM*%
G71*
G04*
G04 #@! TF.SameCoordinates,5963EE20-531D-4955-9439-85CF453D8019*
G04*
G04*
G04 #@! TF.FilePolarity,Positive*
G04*
G01*
G75*
%ADD43C,0.2540*%
%ADD45C,0.5000*%
%ADD47C,1.6000*%
%ADD48R,1.6000X1.6000*%
%ADD49C,1.5200*%
%ADD50R,1.5200X1.5200*%
%ADD51C,1.1200*%
%ADD52C,1.3100*%
%ADD53R,1.6000X1.6000*%
%ADD54C,0.6000*%
%ADD55C,1.0000*%
D43*
X307000Y387512D02*
Y397750D01*
X48100Y290000D02*
X209488D01*
X307000Y387512D01*
X320000Y439000D02*
X321000Y440000D01*
X320000Y397750D02*
Y439000D01*
X28900Y270800D02*
X48100Y290000D01*
D45*
X686747Y324000D02*
X689000D01*
X680747Y330000D02*
X686747Y324000D01*
X551000Y330000D02*
X680747D01*
X725051Y360400D02*
X758252D01*
X706024Y379427D02*
X725051Y360400D01*
X758252D02*
Y443000D01*
X640906Y409094D02*
X675813Y444000D01*
X688000D01*
X684000Y371000D02*
X692427Y379427D01*
X706024D01*
X720000Y393402D01*
Y422811D01*
X688000Y444000D02*
X695810Y436190D01*
X706621D01*
X720000Y422811D01*
X592000Y371000D02*
X684000D01*
X551000Y330000D02*
X592000Y371000D01*
X16000Y339400D02*
Y413300D01*
X9000Y332400D02*
X16000Y339400D01*
X9000Y178300D02*
Y332400D01*
X28900Y67600D02*
Y158400D01*
X9000Y178300D02*
X28900Y158400D01*
X143000Y361000D02*
X182900D01*
X68300D02*
X143000D01*
X28700Y426000D02*
X89134D01*
X90715Y427581D02*
X151419D01*
X89134Y426000D02*
X90715Y427581D01*
X16000Y413300D02*
X68300Y361000D01*
X28700Y426000D02*
X38700Y436000D01*
X16000Y413300D02*
X28700Y426000D01*
X38700Y436000D02*
X48000D01*
X127700Y394231D02*
X131219Y397750D01*
D47*
X104642Y337700D02*
D03*
X613100Y16800D02*
D03*
X587700D02*
D03*
X562300D02*
D03*
X536900D02*
D03*
X511500D02*
D03*
X384500D02*
D03*
X308300D02*
D03*
X282900D02*
D03*
X257500D02*
D03*
X206700D02*
D03*
X181300D02*
D03*
X130500D02*
D03*
X79700D02*
D03*
X54300D02*
D03*
X105100D02*
D03*
X155900D02*
D03*
X232100D02*
D03*
X333700D02*
D03*
X359100D02*
D03*
X409900D02*
D03*
X435300D02*
D03*
X460700D02*
D03*
X486100D02*
D03*
X613100Y270800D02*
D03*
X587700D02*
D03*
X562300D02*
D03*
X536900D02*
D03*
X511500D02*
D03*
X384500D02*
D03*
X308300D02*
D03*
X282900D02*
D03*
X257500D02*
D03*
X206700D02*
D03*
X181300D02*
D03*
X130500D02*
D03*
X79700D02*
D03*
X54300D02*
D03*
X105100D02*
D03*
X155900D02*
D03*
X232100D02*
D03*
X333700D02*
D03*
X359100D02*
D03*
X409900D02*
D03*
X435300D02*
D03*
X460700D02*
D03*
X486100D02*
D03*
X182900Y431000D02*
D03*
X208300D02*
D03*
X233700D02*
D03*
X102300Y394231D02*
D03*
X16000Y438700D02*
D03*
X701220Y423150D02*
D03*
X182900Y361000D02*
D03*
X208300D02*
D03*
X233700D02*
D03*
D48*
X79243Y337700D02*
D03*
X28900Y16800D02*
D03*
Y270800D02*
D03*
X259100Y431000D02*
D03*
X127700Y394231D02*
D03*
X259100Y361000D02*
D03*
D49*
X435300Y67600D02*
D03*
X409900D02*
D03*
X308300D02*
D03*
X257500D02*
D03*
X181300D02*
D03*
X79700D02*
D03*
X54300D02*
D03*
X105100D02*
D03*
X130500D02*
D03*
X155900D02*
D03*
X206700D02*
D03*
X232100D02*
D03*
X282900D02*
D03*
X333700D02*
D03*
X359100D02*
D03*
X384500D02*
D03*
X460700D02*
D03*
X486100D02*
D03*
X511500D02*
D03*
X536900D02*
D03*
X562300D02*
D03*
X587700D02*
D03*
X613100D02*
D03*
X435300Y220000D02*
D03*
X409900D02*
D03*
X308300D02*
D03*
X257500D02*
D03*
X181300D02*
D03*
X79700D02*
D03*
X54300D02*
D03*
X105100D02*
D03*
X130500D02*
D03*
X155900D02*
D03*
X206700D02*
D03*
X232100D02*
D03*
X282900D02*
D03*
X333700D02*
D03*
X359100D02*
D03*
X384500D02*
D03*
X460700D02*
D03*
X486100D02*
D03*
X511500D02*
D03*
X536900D02*
D03*
X562300D02*
D03*
X587700D02*
D03*
X613100D02*
D03*
D50*
X28900Y67600D02*
D03*
Y220000D02*
D03*
D51*
X732852Y417600D02*
D03*
X758252Y443000D02*
D03*
X783652Y417600D02*
D03*
Y335000D02*
D03*
X758252Y360400D02*
D03*
X732852Y335000D02*
D03*
D52*
X551000Y440000D02*
D03*
X321000D02*
D03*
Y330000D02*
D03*
X551000D02*
D03*
D53*
X16000Y413300D02*
D03*
X701220Y397750D02*
D03*
D54*
X689000Y324000D02*
D03*
X684000Y371000D02*
D03*
X9000Y313000D02*
D03*
X14000Y173000D02*
D03*
X143000Y361000D02*
D03*
X151419Y427581D02*
D03*
X640906Y409094D02*
D03*
X48000Y436000D02*
D03*
X688000Y444000D02*
D03*
D55*
X320000Y397750D02*
X701220D01*
X307000D02*
X320000D01*
X131219D02*
X307000D01*
M02*
