G04*
G04 #@! TF.GenerationSoftware,Altium Limited,Altium Designer,20.1.12 (249)*
G04*
G04 Layer_Color=255*
%FSLAX44Y44*%
%MOMM*%
G71*
G04*
G04 #@! TF.SameCoordinates,28A8639E-1F06-4054-8E9C-96101E26D361*
G04*
G04*
G04 #@! TF.FilePolarity,Positive*
G04*
G01*
G75*
%ADD13R,0.9400X0.8300*%
%ADD14R,0.8300X0.9400*%
%ADD15R,1.0500X0.6000*%
%ADD16R,0.6000X1.0500*%
%ADD17R,1.3970X0.4318*%
%ADD18R,0.6000X1.2000*%
%ADD19R,0.8000X0.8000*%
%ADD38C,1.6000*%
%ADD39R,1.6000X1.6000*%
%ADD40R,1.6000X1.6000*%
%ADD41C,1.5200*%
%ADD42R,1.5200X1.5200*%
%ADD43C,1.3100*%
D13*
X590685Y368600D02*
D03*
Y355400D02*
D03*
X410000Y18400D02*
D03*
Y31600D02*
D03*
X442000D02*
D03*
Y18400D02*
D03*
X425000Y31600D02*
D03*
Y18400D02*
D03*
X273250Y457400D02*
D03*
Y470600D02*
D03*
X325000Y457400D02*
D03*
Y470600D02*
D03*
X144159Y428900D02*
D03*
Y442100D02*
D03*
X84174Y426150D02*
D03*
Y439350D02*
D03*
X202750Y394581D02*
D03*
Y407781D02*
D03*
X203043Y474387D02*
D03*
Y461186D02*
D03*
X581750Y483635D02*
D03*
Y470435D02*
D03*
X622000Y144943D02*
D03*
Y131742D02*
D03*
D14*
X458400Y19000D02*
D03*
X471600D02*
D03*
Y31750D02*
D03*
X458400D02*
D03*
X73258Y482807D02*
D03*
X86459D02*
D03*
X73258Y498250D02*
D03*
X86459D02*
D03*
X73008Y467365D02*
D03*
X86208D02*
D03*
X476900Y451750D02*
D03*
X490100D02*
D03*
D15*
X547692Y355792D02*
D03*
Y346292D02*
D03*
Y336792D02*
D03*
X573692D02*
D03*
Y355792D02*
D03*
X101167Y441389D02*
D03*
Y431889D02*
D03*
Y422389D02*
D03*
X127167D02*
D03*
Y441389D02*
D03*
D16*
X610043Y428000D02*
D03*
X619543D02*
D03*
X629043D02*
D03*
Y454000D02*
D03*
X610043D02*
D03*
D17*
X102902Y494750D02*
D03*
Y488250D02*
D03*
Y481750D02*
D03*
Y475250D02*
D03*
X147098D02*
D03*
Y481750D02*
D03*
Y488250D02*
D03*
Y494750D02*
D03*
D18*
X572250Y453243D02*
D03*
X581750D02*
D03*
X591250D02*
D03*
Y428243D02*
D03*
X581750D02*
D03*
X572250D02*
D03*
D19*
X202743Y438474D02*
D03*
Y422474D02*
D03*
Y505079D02*
D03*
Y489079D02*
D03*
D38*
X630000Y367308D02*
D03*
X611000Y499000D02*
D03*
X505000Y23000D02*
D03*
X37900Y56800D02*
D03*
X63300D02*
D03*
X88700D02*
D03*
X114100D02*
D03*
X139500D02*
D03*
X266500D02*
D03*
X342700D02*
D03*
X368100D02*
D03*
X393500D02*
D03*
X444300D02*
D03*
X469700D02*
D03*
X520500D02*
D03*
X571300D02*
D03*
X596700D02*
D03*
X545900D02*
D03*
X495100D02*
D03*
X418900D02*
D03*
X317300D02*
D03*
X291900D02*
D03*
X241100D02*
D03*
X215700D02*
D03*
X190300D02*
D03*
X164900D02*
D03*
X25000Y457700D02*
D03*
X37900Y310800D02*
D03*
X63300D02*
D03*
X88700D02*
D03*
X114100D02*
D03*
X139500D02*
D03*
X266500D02*
D03*
X342700D02*
D03*
X368100D02*
D03*
X393500D02*
D03*
X444300D02*
D03*
X469700D02*
D03*
X520500D02*
D03*
X571300D02*
D03*
X596700D02*
D03*
X545900D02*
D03*
X495100D02*
D03*
X418900D02*
D03*
X317300D02*
D03*
X291900D02*
D03*
X241100D02*
D03*
X215700D02*
D03*
X190300D02*
D03*
X164900D02*
D03*
X495300Y344743D02*
D03*
X580300Y401250D02*
D03*
X261150Y495750D02*
D03*
X286550D02*
D03*
X311950D02*
D03*
X261150Y432058D02*
D03*
X286550D02*
D03*
X311950D02*
D03*
X177750Y406707D02*
D03*
Y492950D02*
D03*
D39*
X622100Y56800D02*
D03*
Y310800D02*
D03*
X520700Y344743D02*
D03*
X605700Y401250D02*
D03*
X337350Y495750D02*
D03*
Y432058D02*
D03*
D40*
X25000Y432300D02*
D03*
X177750Y432107D02*
D03*
Y467550D02*
D03*
D41*
X215700Y107600D02*
D03*
X241100D02*
D03*
X342700D02*
D03*
X393500D02*
D03*
X469700D02*
D03*
X571300D02*
D03*
X596700D02*
D03*
X545900D02*
D03*
X520500D02*
D03*
X495100D02*
D03*
X444300D02*
D03*
X418900D02*
D03*
X368100D02*
D03*
X317300D02*
D03*
X291900D02*
D03*
X266500D02*
D03*
X190300D02*
D03*
X164900D02*
D03*
X139500D02*
D03*
X114100D02*
D03*
X88700D02*
D03*
X63300D02*
D03*
X37900D02*
D03*
X215700Y260000D02*
D03*
X241100D02*
D03*
X342700D02*
D03*
X393500D02*
D03*
X469700D02*
D03*
X571300D02*
D03*
X596700D02*
D03*
X545900D02*
D03*
X520500D02*
D03*
X495100D02*
D03*
X444300D02*
D03*
X418900D02*
D03*
X368100D02*
D03*
X317300D02*
D03*
X291900D02*
D03*
X266500D02*
D03*
X190300D02*
D03*
X164900D02*
D03*
X139500D02*
D03*
X114100D02*
D03*
X88700D02*
D03*
X63300D02*
D03*
X37900D02*
D03*
D42*
X622100Y107600D02*
D03*
Y260000D02*
D03*
D43*
X445000Y413800D02*
D03*
X521200D02*
D03*
Y490000D02*
D03*
X445000D02*
D03*
M02*
