G04*
G04 #@! TF.GenerationSoftware,Altium Limited,Altium Designer,20.1.12 (249)*
G04*
G04 Layer_Physical_Order=2*
G04 Layer_Color=16711680*
%FSLAX44Y44*%
%MOMM*%
G71*
G04*
G04 #@! TF.SameCoordinates,28A8639E-1F06-4054-8E9C-96101E26D361*
G04*
G04*
G04 #@! TF.FilePolarity,Positive*
G04*
G01*
G75*
%ADD34C,0.5000*%
%ADD36C,0.2540*%
%ADD38C,1.6000*%
%ADD39R,1.6000X1.6000*%
%ADD40R,1.6000X1.6000*%
%ADD41C,1.5200*%
%ADD42R,1.5200X1.5200*%
%ADD43C,1.3100*%
%ADD44C,0.6000*%
D34*
X360000Y402500D02*
X360000D01*
X191957Y392500D02*
X350000D01*
X360000Y402500D01*
X177750Y406707D02*
X191957Y392500D01*
X137550Y467550D02*
X177750D01*
X15000Y345000D02*
X137550Y467550D01*
X15000Y240000D02*
Y345000D01*
Y240000D02*
X65000Y190000D01*
X539700D01*
X622100Y107600D01*
X337350Y432058D02*
X426743D01*
X445000Y413800D01*
X311950Y432058D02*
X337350D01*
X286550D02*
X311950D01*
X261150D02*
X286550D01*
X25000Y432300D02*
X57309Y464609D01*
Y474809D01*
X57500Y475000D01*
D36*
X230707Y462500D02*
X261150Y432058D01*
X215000Y462500D02*
X230707D01*
X445000Y413800D02*
X481965Y450765D01*
Y465416D01*
X516909Y500360D01*
X559640D01*
X567500Y492500D01*
X565000Y377500D02*
Y410890D01*
X521200Y454689D02*
X565000Y410890D01*
X521200Y454689D02*
Y490000D01*
D38*
X630000Y367308D02*
D03*
X611000Y499000D02*
D03*
X505000Y23000D02*
D03*
X37900Y56800D02*
D03*
X63300D02*
D03*
X88700D02*
D03*
X114100D02*
D03*
X139500D02*
D03*
X266500D02*
D03*
X342700D02*
D03*
X368100D02*
D03*
X393500D02*
D03*
X444300D02*
D03*
X469700D02*
D03*
X520500D02*
D03*
X571300D02*
D03*
X596700D02*
D03*
X545900D02*
D03*
X495100D02*
D03*
X418900D02*
D03*
X317300D02*
D03*
X291900D02*
D03*
X241100D02*
D03*
X215700D02*
D03*
X190300D02*
D03*
X164900D02*
D03*
X25000Y457700D02*
D03*
X37900Y310800D02*
D03*
X63300D02*
D03*
X88700D02*
D03*
X114100D02*
D03*
X139500D02*
D03*
X266500D02*
D03*
X342700D02*
D03*
X368100D02*
D03*
X393500D02*
D03*
X444300D02*
D03*
X469700D02*
D03*
X520500D02*
D03*
X571300D02*
D03*
X596700D02*
D03*
X545900D02*
D03*
X495100D02*
D03*
X418900D02*
D03*
X317300D02*
D03*
X291900D02*
D03*
X241100D02*
D03*
X215700D02*
D03*
X190300D02*
D03*
X164900D02*
D03*
X495300Y344743D02*
D03*
X580300Y401250D02*
D03*
X261150Y495750D02*
D03*
X286550D02*
D03*
X311950D02*
D03*
X261150Y432058D02*
D03*
X286550D02*
D03*
X311950D02*
D03*
X177750Y406707D02*
D03*
Y492950D02*
D03*
D39*
X622100Y56800D02*
D03*
Y310800D02*
D03*
X520700Y344743D02*
D03*
X605700Y401250D02*
D03*
X337350Y495750D02*
D03*
Y432058D02*
D03*
D40*
X25000Y432300D02*
D03*
X177750Y432107D02*
D03*
Y467550D02*
D03*
D41*
X215700Y107600D02*
D03*
X241100D02*
D03*
X342700D02*
D03*
X393500D02*
D03*
X469700D02*
D03*
X571300D02*
D03*
X596700D02*
D03*
X545900D02*
D03*
X520500D02*
D03*
X495100D02*
D03*
X444300D02*
D03*
X418900D02*
D03*
X368100D02*
D03*
X317300D02*
D03*
X291900D02*
D03*
X266500D02*
D03*
X190300D02*
D03*
X164900D02*
D03*
X139500D02*
D03*
X114100D02*
D03*
X88700D02*
D03*
X63300D02*
D03*
X37900D02*
D03*
X215700Y260000D02*
D03*
X241100D02*
D03*
X342700D02*
D03*
X393500D02*
D03*
X469700D02*
D03*
X571300D02*
D03*
X596700D02*
D03*
X545900D02*
D03*
X520500D02*
D03*
X495100D02*
D03*
X444300D02*
D03*
X418900D02*
D03*
X368100D02*
D03*
X317300D02*
D03*
X291900D02*
D03*
X266500D02*
D03*
X190300D02*
D03*
X164900D02*
D03*
X139500D02*
D03*
X114100D02*
D03*
X88700D02*
D03*
X63300D02*
D03*
X37900D02*
D03*
D42*
X622100Y107600D02*
D03*
Y260000D02*
D03*
D43*
X445000Y413800D02*
D03*
X521200D02*
D03*
Y490000D02*
D03*
X445000D02*
D03*
D44*
X360000Y402500D02*
D03*
X215000Y462500D02*
D03*
X567500Y492500D02*
D03*
X565000Y377500D02*
D03*
X57500Y475000D02*
D03*
M02*
