G04*
G04 #@! TF.GenerationSoftware,Altium Limited,Altium Designer,20.1.12 (249)*
G04*
G04 Layer_Color=65535*
%FSLAX44Y44*%
%MOMM*%
G71*
G04*
G04 #@! TF.SameCoordinates,5963EE20-531D-4955-9439-85CF453D8019*
G04*
G04*
G04 #@! TF.FilePolarity,Positive*
G04*
G01*
G75*
%ADD10C,0.2000*%
%ADD11C,0.1000*%
%ADD12C,0.1524*%
%ADD13C,0.1270*%
%ADD14C,0.0500*%
G36*
X703448Y236992D02*
X711576D01*
Y234960D01*
X713608D01*
Y232928D01*
X715640D01*
Y230896D01*
X717672D01*
Y228864D01*
Y226832D01*
X719704D01*
Y224800D01*
Y222768D01*
Y220736D01*
Y218704D01*
Y216672D01*
Y214640D01*
Y212608D01*
X717672D01*
Y210576D01*
X715640D01*
Y212608D01*
Y214640D01*
Y216672D01*
Y218704D01*
Y220736D01*
X713608D01*
Y222768D01*
Y224800D01*
X711576D01*
Y226832D01*
X713608D01*
Y228864D01*
X711576D01*
Y230896D01*
X707512D01*
Y232928D01*
X699384D01*
Y230896D01*
X697352D01*
Y232928D01*
X695320D01*
Y230896D01*
X693288D01*
Y228864D01*
Y226832D01*
X691256D01*
Y224800D01*
X693288D01*
Y222768D01*
Y220736D01*
Y218704D01*
X697352D01*
Y216672D01*
X691256D01*
Y214640D01*
X689224D01*
Y212608D01*
Y210576D01*
Y208544D01*
X687192D01*
Y206512D01*
X689224D01*
Y204480D01*
X687192D01*
Y206512D01*
X685160D01*
Y208544D01*
Y210576D01*
X687192D01*
Y212608D01*
Y214640D01*
Y216672D01*
X685160D01*
Y218704D01*
X687192D01*
Y220736D01*
X685160D01*
Y222768D01*
Y224800D01*
Y226832D01*
X687192D01*
Y228864D01*
X689224D01*
Y230896D01*
Y232928D01*
X693288D01*
Y234960D01*
X695320D01*
Y236992D01*
X697352D01*
Y239024D01*
X703448D01*
Y236992D01*
D02*
G37*
G36*
X695320Y198384D02*
X701416D01*
Y196352D01*
X703448D01*
Y194320D01*
X699384D01*
Y192288D01*
Y190256D01*
X697352D01*
Y188224D01*
X695320D01*
Y190256D01*
Y192288D01*
X693288D01*
Y194320D01*
X695320D01*
Y196352D01*
Y198384D01*
X693288D01*
Y200416D01*
X695320D01*
Y198384D01*
D02*
G37*
G36*
X717672Y192288D02*
X719704D01*
Y190256D01*
X721736D01*
Y188224D01*
X727832D01*
Y186192D01*
Y184160D01*
Y182128D01*
Y180096D01*
Y178064D01*
Y176032D01*
X709544D01*
Y178064D01*
X711576D01*
Y180096D01*
X713608D01*
Y182128D01*
X711576D01*
Y184160D01*
X713608D01*
Y186192D01*
X715640D01*
Y188224D01*
Y190256D01*
Y192288D01*
Y194320D01*
X717672D01*
Y192288D01*
D02*
G37*
G36*
X701416Y182128D02*
X705480D01*
Y180096D01*
Y178064D01*
X701416D01*
Y176032D01*
X697352D01*
Y178064D01*
X695320D01*
Y180096D01*
Y182128D01*
X699384D01*
Y184160D01*
X701416D01*
Y182128D01*
D02*
G37*
G36*
X693288Y184160D02*
Y182128D01*
Y180096D01*
Y178064D01*
Y176032D01*
X675000D01*
Y178064D01*
Y180096D01*
X679064D01*
Y182128D01*
X683128D01*
Y184160D01*
X689224D01*
Y186192D01*
X693288D01*
Y184160D01*
D02*
G37*
D10*
X721602Y417620D02*
G03*
X721602Y417620I-570J0D01*
G01*
Y335020D02*
G03*
X721602Y335020I-570J0D01*
G01*
X661750Y265500D02*
X670250D01*
X661750D02*
Y294500D01*
X670250D01*
Y265500D02*
Y294500D01*
X673750Y265000D02*
X684250D01*
X57500Y340750D02*
Y349250D01*
X28500Y340750D02*
X57500D01*
X28500D02*
Y349250D01*
X57500D01*
X58000Y352750D02*
Y363250D01*
X118842Y324250D02*
Y351150D01*
X65043D02*
X118842D01*
X65043Y324250D02*
Y351150D01*
Y324250D02*
X118842D01*
X12450Y54100D02*
Y81100D01*
Y54100D02*
X629550D01*
Y81100D01*
X12450D02*
X629550D01*
X627300Y3350D02*
Y30250D01*
X14700D02*
X627300D01*
X14700Y3350D02*
Y30250D01*
Y3350D02*
X627300D01*
Y257350D02*
Y284250D01*
X14700D02*
X627300D01*
X14700Y257350D02*
Y284250D01*
Y257350D02*
X627300D01*
X12450Y206500D02*
Y233500D01*
Y206500D02*
X629550D01*
Y233500D01*
X12450D02*
X629550D01*
X614035Y452510D02*
X646035D01*
Y403490D02*
Y452510D01*
X614035Y403490D02*
X646035D01*
X614035D02*
Y452510D01*
X595285Y453800D02*
X610535D01*
X725253Y382300D02*
Y452200D01*
Y382300D02*
X791253D01*
Y452200D01*
X725253D02*
X791253D01*
X725253Y369600D02*
X791253D01*
Y299700D02*
Y369600D01*
X725253Y299700D02*
X791253D01*
X725253D02*
Y369600D01*
X168700Y417550D02*
Y444450D01*
Y417550D02*
X273300D01*
Y444450D01*
X168700D02*
X273300D01*
X88100Y380782D02*
Y407682D01*
Y380782D02*
X141900D01*
Y407682D01*
X88100D02*
X141900D01*
X2550Y452900D02*
X29450D01*
X2550Y399100D02*
Y452900D01*
Y399100D02*
X29450D01*
Y452900D01*
X687770Y437350D02*
X714670D01*
X687770Y383550D02*
Y437350D01*
Y383550D02*
X714670D01*
Y437350D01*
X631335Y367510D02*
X663335D01*
Y318490D02*
Y367510D01*
X631335Y318490D02*
X663335D01*
X631335D02*
Y367510D01*
X612585Y368800D02*
X627835D01*
X168700Y347550D02*
Y374450D01*
Y347550D02*
X273300D01*
Y374450D01*
X168700D02*
X273300D01*
D11*
X538300Y452700D02*
X563700D01*
Y427300D02*
Y452700D01*
X538300Y427300D02*
X563700D01*
X538300D02*
Y452700D01*
X308300D02*
X333700D01*
Y427300D02*
Y452700D01*
X308300Y427300D02*
X333700D01*
X308300D02*
Y452700D01*
Y342700D02*
X333700D01*
Y317300D02*
Y342700D01*
X308300Y317300D02*
X333700D01*
X308300D02*
Y342700D01*
X538300D02*
X563700D01*
Y317300D02*
Y342700D01*
X538300Y317300D02*
X563700D01*
X538300D02*
Y342700D01*
X150332Y399396D02*
X147000D01*
Y396897D01*
X148666Y397730D01*
X149499D01*
X150332Y396897D01*
Y395231D01*
X149499Y394398D01*
X147833D01*
X147000Y395231D01*
X151998Y399396D02*
Y396064D01*
X153665Y394398D01*
X155331Y396064D01*
Y399396D01*
X150332Y390998D02*
X147000D01*
Y386000D01*
X150332D01*
X147000Y388499D02*
X148666D01*
X151998Y386000D02*
Y390998D01*
X155331Y386000D01*
Y390998D01*
X541000Y414730D02*
Y418063D01*
X542666Y419729D01*
X544332Y418063D01*
Y414730D01*
Y417229D01*
X541000D01*
X545998Y414730D02*
Y418063D01*
X546831D01*
X547664Y417229D01*
Y414730D01*
Y417229D01*
X548498Y418063D01*
X549331Y417229D01*
Y414730D01*
X550997Y413064D02*
Y418063D01*
X553496D01*
X554329Y417229D01*
Y415563D01*
X553496Y414730D01*
X550997D01*
X544332Y408831D02*
X543499Y409664D01*
X541833D01*
X541000Y408831D01*
Y407998D01*
X541833Y407165D01*
X543499D01*
X544332Y406332D01*
Y405499D01*
X543499Y404666D01*
X541833D01*
X541000Y405499D01*
X545998Y404666D02*
X547664D01*
X546831D01*
Y407998D01*
X545998D01*
X551830Y403000D02*
X552663D01*
X553496Y403833D01*
Y407998D01*
X550997D01*
X550164Y407165D01*
Y405499D01*
X550997Y404666D01*
X553496D01*
X555162D02*
Y407998D01*
X557661D01*
X558494Y407165D01*
Y404666D01*
X560993Y407998D02*
X562660D01*
X563493Y407165D01*
Y404666D01*
X560993D01*
X560160Y405499D01*
X560993Y406332D01*
X563493D01*
X565159Y404666D02*
X566825D01*
X565992D01*
Y409664D01*
X565159D01*
X189000Y454165D02*
X189833Y454998D01*
X191499D01*
X192332Y454165D01*
Y453332D01*
X191499Y452499D01*
X190666D01*
X191499D01*
X192332Y451666D01*
Y450833D01*
X191499Y450000D01*
X189833D01*
X189000Y450833D01*
X193998Y454998D02*
Y451666D01*
X195665Y450000D01*
X197331Y451666D01*
Y454998D01*
X198997Y454165D02*
X199830Y454998D01*
X201496D01*
X202329Y454165D01*
Y453332D01*
X201496Y452499D01*
X200663D01*
X201496D01*
X202329Y451666D01*
Y450833D01*
X201496Y450000D01*
X199830D01*
X198997Y450833D01*
X654000Y146999D02*
Y142000D01*
Y146999D02*
X656142D01*
X656857Y146761D01*
X657094Y146523D01*
X657333Y146047D01*
Y145571D01*
X657094Y145095D01*
X656857Y144857D01*
X656142Y144619D01*
X654000D02*
X656142D01*
X656857Y144380D01*
X657094Y144142D01*
X657333Y143666D01*
Y142952D01*
X657094Y142476D01*
X656857Y142238D01*
X656142Y142000D01*
X654000D01*
X662022Y145809D02*
X661784Y146285D01*
X661308Y146761D01*
X660832Y146999D01*
X659880D01*
X659404Y146761D01*
X658928Y146285D01*
X658689Y145809D01*
X658451Y145095D01*
Y143904D01*
X658689Y143190D01*
X658928Y142714D01*
X659404Y142238D01*
X659880Y142000D01*
X660832D01*
X661308Y142238D01*
X661784Y142714D01*
X662022Y143190D01*
X666997Y145809D02*
X666759Y146285D01*
X666283Y146761D01*
X665807Y146999D01*
X664855D01*
X664379Y146761D01*
X663903Y146285D01*
X663665Y145809D01*
X663427Y145095D01*
Y143904D01*
X663665Y143190D01*
X663903Y142714D01*
X664379Y142238D01*
X664855Y142000D01*
X665807D01*
X666283Y142238D01*
X666759Y142714D01*
X666997Y143190D01*
X672329Y146999D02*
Y142000D01*
Y146999D02*
X674472D01*
X675186Y146761D01*
X675424Y146523D01*
X675662Y146047D01*
Y145571D01*
X675424Y145095D01*
X675186Y144857D01*
X674472Y144619D01*
X672329D01*
X673996D02*
X675662Y142000D01*
X676781Y146999D02*
X680113Y142000D01*
Y146999D02*
X676781Y142000D01*
X685160Y146999D02*
Y142000D01*
Y146999D02*
X687064Y142000D01*
X688969Y146999D02*
X687064Y142000D01*
X688969Y146999D02*
Y142000D01*
X693253Y145333D02*
Y142000D01*
Y144619D02*
X692777Y145095D01*
X692301Y145333D01*
X691587D01*
X691111Y145095D01*
X690635Y144619D01*
X690397Y143904D01*
Y143428D01*
X690635Y142714D01*
X691111Y142238D01*
X691587Y142000D01*
X692301D01*
X692777Y142238D01*
X693253Y142714D01*
X695063Y146999D02*
X695301Y146761D01*
X695539Y146999D01*
X695301Y147237D01*
X695063Y146999D01*
X695301Y145333D02*
Y142000D01*
X696420Y145333D02*
Y142000D01*
Y144380D02*
X697134Y145095D01*
X697610Y145333D01*
X698324D01*
X698800Y145095D01*
X699038Y144380D01*
Y142000D01*
X704275Y146999D02*
Y142000D01*
Y146999D02*
X706417D01*
X707132Y146761D01*
X707370Y146523D01*
X707607Y146047D01*
Y145571D01*
X707370Y145095D01*
X707132Y144857D01*
X706417Y144619D01*
X704275D02*
X706417D01*
X707132Y144380D01*
X707370Y144142D01*
X707607Y143666D01*
Y142952D01*
X707370Y142476D01*
X707132Y142238D01*
X706417Y142000D01*
X704275D01*
X709917Y145333D02*
X709441Y145095D01*
X708964Y144619D01*
X708726Y143904D01*
Y143428D01*
X708964Y142714D01*
X709441Y142238D01*
X709917Y142000D01*
X710631D01*
X711107Y142238D01*
X711583Y142714D01*
X711821Y143428D01*
Y143904D01*
X711583Y144619D01*
X711107Y145095D01*
X710631Y145333D01*
X709917D01*
X715772D02*
Y142000D01*
Y144619D02*
X715296Y145095D01*
X714820Y145333D01*
X714106D01*
X713630Y145095D01*
X713154Y144619D01*
X712916Y143904D01*
Y143428D01*
X713154Y142714D01*
X713630Y142238D01*
X714106Y142000D01*
X714820D01*
X715296Y142238D01*
X715772Y142714D01*
X717105Y145333D02*
Y142000D01*
Y143904D02*
X717344Y144619D01*
X717820Y145095D01*
X718296Y145333D01*
X719010D01*
X722319Y146999D02*
Y142000D01*
Y144619D02*
X721843Y145095D01*
X721367Y145333D01*
X720652D01*
X720176Y145095D01*
X719700Y144619D01*
X719462Y143904D01*
Y143428D01*
X719700Y142714D01*
X720176Y142238D01*
X720652Y142000D01*
X721367D01*
X721843Y142238D01*
X722319Y142714D01*
X727579Y146999D02*
X729484Y142000D01*
X731388Y146999D02*
X729484Y142000D01*
X732031Y146047D02*
X732507Y146285D01*
X733221Y146999D01*
Y142000D01*
X735935Y142476D02*
X735697Y142238D01*
X735935Y142000D01*
X736173Y142238D01*
X735935Y142476D01*
X738696Y146999D02*
X737982Y146761D01*
X737506Y146047D01*
X737268Y144857D01*
Y144142D01*
X737506Y142952D01*
X737982Y142238D01*
X738696Y142000D01*
X739172D01*
X739886Y142238D01*
X740362Y142952D01*
X740600Y144142D01*
Y144857D01*
X740362Y146047D01*
X739886Y146761D01*
X739172Y146999D01*
X738696D01*
X654000Y161665D02*
Y156666D01*
X656857D01*
X657880Y161665D02*
X658118Y161427D01*
X658356Y161665D01*
X658118Y161903D01*
X657880Y161665D01*
X658118Y159999D02*
Y156666D01*
X659237Y159999D02*
Y156666D01*
Y159047D02*
X659951Y159761D01*
X660427Y159999D01*
X661141D01*
X661617Y159761D01*
X661855Y159047D01*
Y156666D01*
X666021Y159999D02*
Y156190D01*
X665783Y155476D01*
X665545Y155238D01*
X665069Y155000D01*
X664355D01*
X663879Y155238D01*
X666021Y159285D02*
X665545Y159761D01*
X665069Y159999D01*
X664355D01*
X663879Y159761D01*
X663403Y159285D01*
X663165Y158571D01*
Y158095D01*
X663403Y157380D01*
X663879Y156904D01*
X664355Y156666D01*
X665069D01*
X665545Y156904D01*
X666021Y157380D01*
X667354Y161665D02*
Y156666D01*
X669735Y159999D02*
X667354Y157619D01*
X668306Y158571D02*
X669973Y156666D01*
X670758Y158571D02*
X673615D01*
Y159047D01*
X673377Y159523D01*
X673139Y159761D01*
X672663Y159999D01*
X671948D01*
X671472Y159761D01*
X670996Y159285D01*
X670758Y158571D01*
Y158095D01*
X670996Y157380D01*
X671472Y156904D01*
X671948Y156666D01*
X672663D01*
X673139Y156904D01*
X673615Y157380D01*
X682898Y159761D02*
X682661Y159523D01*
X682898Y159285D01*
X683137Y159523D01*
Y159761D01*
X682898Y159999D01*
X682661D01*
X682422Y159761D01*
X682184Y159285D01*
X681708Y158095D01*
X681232Y157380D01*
X680756Y156904D01*
X680280Y156666D01*
X679566D01*
X678852Y156904D01*
X678614Y157380D01*
Y158095D01*
X678852Y158571D01*
X680280Y159523D01*
X680756Y159999D01*
X680994Y160475D01*
Y160951D01*
X680756Y161427D01*
X680280Y161665D01*
X679804Y161427D01*
X679566Y160951D01*
Y160475D01*
X679804Y159761D01*
X680280Y159047D01*
X681470Y157380D01*
X681946Y156904D01*
X682661Y156666D01*
X682898D01*
X683137Y156904D01*
Y157142D01*
X679566Y156666D02*
X679090Y156904D01*
X678852Y157380D01*
Y158095D01*
X679090Y158571D01*
X679566Y159047D01*
Y160475D02*
X679804Y159999D01*
X681708Y157380D01*
X682184Y156904D01*
X682661Y156666D01*
X690683Y161665D02*
Y157857D01*
X690444Y157142D01*
X690207Y156904D01*
X689730Y156666D01*
X689254D01*
X688778Y156904D01*
X688540Y157142D01*
X688302Y157857D01*
Y158333D01*
X693158Y159999D02*
X692682Y159761D01*
X692206Y159285D01*
X691968Y158571D01*
Y158095D01*
X692206Y157380D01*
X692682Y156904D01*
X693158Y156666D01*
X693872D01*
X694349Y156904D01*
X694825Y157380D01*
X695063Y158095D01*
Y158571D01*
X694825Y159285D01*
X694349Y159761D01*
X693872Y159999D01*
X693158D01*
X696158D02*
Y156666D01*
Y159047D02*
X696872Y159761D01*
X697348Y159999D01*
X698062D01*
X698538Y159761D01*
X698776Y159047D01*
Y156666D01*
X702942Y159999D02*
Y156666D01*
Y159285D02*
X702466Y159761D01*
X701990Y159999D01*
X701276D01*
X700799Y159761D01*
X700323Y159285D01*
X700085Y158571D01*
Y158095D01*
X700323Y157380D01*
X700799Y156904D01*
X701276Y156666D01*
X701990D01*
X702466Y156904D01*
X702942Y157380D01*
X704989Y161665D02*
Y157619D01*
X705227Y156904D01*
X705703Y156666D01*
X706179D01*
X704275Y159999D02*
X705941D01*
X706893Y161665D02*
Y156666D01*
Y159047D02*
X707607Y159761D01*
X708084Y159999D01*
X708798D01*
X709274Y159761D01*
X709512Y159047D01*
Y156666D01*
X713678Y159999D02*
Y156666D01*
Y159285D02*
X713202Y159761D01*
X712726Y159999D01*
X712011D01*
X711535Y159761D01*
X711059Y159285D01*
X710821Y158571D01*
Y158095D01*
X711059Y157380D01*
X711535Y156904D01*
X712011Y156666D01*
X712726D01*
X713202Y156904D01*
X713678Y157380D01*
X715011Y159999D02*
Y156666D01*
Y159047D02*
X715725Y159761D01*
X716201Y159999D01*
X716915D01*
X717391Y159761D01*
X717629Y159047D01*
Y156666D01*
X719176Y161189D02*
X718938Y161427D01*
X719176Y161665D01*
X719415Y161427D01*
Y160951D01*
X719176Y160475D01*
X718938Y160237D01*
X723128Y159285D02*
X722890Y159761D01*
X722176Y159999D01*
X721462D01*
X720748Y159761D01*
X720509Y159285D01*
X720748Y158809D01*
X721224Y158571D01*
X722414Y158333D01*
X722890Y158095D01*
X723128Y157619D01*
Y157380D01*
X722890Y156904D01*
X722176Y156666D01*
X721462D01*
X720748Y156904D01*
X720509Y157380D01*
X728103Y161665D02*
Y156666D01*
Y161665D02*
X731198D01*
X728103Y159285D02*
X730007D01*
X731769Y161665D02*
X733673Y159285D01*
Y156666D01*
X735578Y161665D02*
X733673Y159285D01*
X736220Y159047D02*
X738363D01*
X739077Y159285D01*
X739315Y159523D01*
X739553Y159999D01*
Y160713D01*
X739315Y161189D01*
X739077Y161427D01*
X738363Y161665D01*
X736220D01*
Y156666D01*
X3002Y217332D02*
Y214000D01*
X5501D01*
X4668Y215666D01*
Y216499D01*
X5501Y217332D01*
X7167D01*
X8000Y216499D01*
Y214833D01*
X7167Y214000D01*
X3002Y218998D02*
X6334D01*
X8000Y220665D01*
X6334Y222331D01*
X3002D01*
X3835Y64332D02*
X3002Y63499D01*
Y61833D01*
X3835Y61000D01*
X7167D01*
X8000Y61833D01*
Y63499D01*
X7167Y64332D01*
X5501D01*
Y62666D01*
X8000Y65998D02*
X3002D01*
X8000Y69331D01*
X3002D01*
Y70997D02*
X8000D01*
Y73496D01*
X7167Y74329D01*
X3835D01*
X3002Y73496D01*
Y70997D01*
X318332Y423998D02*
X315000D01*
Y421499D01*
X316666Y422332D01*
X317499D01*
X318332Y421499D01*
Y419833D01*
X317499Y419000D01*
X315833D01*
X315000Y419833D01*
X319998Y423998D02*
Y420666D01*
X321665Y419000D01*
X323331Y420666D01*
Y423998D01*
X319332Y312165D02*
X318499Y312998D01*
X316833D01*
X316000Y312165D01*
Y308833D01*
X316833Y308000D01*
X318499D01*
X319332Y308833D01*
Y310499D01*
X317666D01*
X320998Y308000D02*
Y312998D01*
X324331Y308000D01*
Y312998D01*
X325997D02*
Y308000D01*
X328496D01*
X329329Y308833D01*
Y312165D01*
X328496Y312998D01*
X325997D01*
X549332Y313165D02*
X548499Y313998D01*
X546833D01*
X546000Y313165D01*
Y309833D01*
X546833Y309000D01*
X548499D01*
X549332Y309833D01*
Y311499D01*
X547666D01*
X550998Y309000D02*
Y313998D01*
X554331Y309000D01*
Y313998D01*
X555997D02*
Y309000D01*
X558496D01*
X559329Y309833D01*
Y313165D01*
X558496Y313998D01*
X555997D01*
X245332Y454998D02*
X242000D01*
Y452499D01*
X243666Y453332D01*
X244499D01*
X245332Y452499D01*
Y450833D01*
X244499Y450000D01*
X242833D01*
X242000Y450833D01*
X246998Y454998D02*
Y451666D01*
X248664Y450000D01*
X250331Y451666D01*
Y454998D01*
X218332Y336165D02*
X217499Y336998D01*
X215833D01*
X215000Y336165D01*
Y332833D01*
X215833Y332000D01*
X217499D01*
X218332Y332833D01*
Y334499D01*
X216666D01*
X219998Y332000D02*
Y336998D01*
X223331Y332000D01*
Y336998D01*
X224997D02*
Y332000D01*
X227496D01*
X228329Y332833D01*
Y336165D01*
X227496Y336998D01*
X224997D01*
X33000Y457998D02*
Y454666D01*
X34666Y453000D01*
X36332Y454666D01*
Y457998D01*
X37998Y453000D02*
X39664D01*
X38831D01*
Y456332D01*
X37998D01*
X42164Y453000D02*
Y456332D01*
X44663D01*
X45496Y455499D01*
Y453000D01*
X38332Y403165D02*
X37499Y403998D01*
X35833D01*
X35000Y403165D01*
Y399833D01*
X35833Y399000D01*
X37499D01*
X38332Y399833D01*
Y401499D01*
X36666D01*
X39998Y399000D02*
Y403998D01*
X43331Y399000D01*
Y403998D01*
X44997D02*
Y399000D01*
X47496D01*
X48329Y399833D01*
Y403165D01*
X47496Y403998D01*
X44997D01*
X250700Y84600D02*
X252366D01*
X251533D01*
Y89598D01*
X250700Y88765D01*
X254865D02*
X255698Y89598D01*
X257365D01*
X258198Y88765D01*
Y85433D01*
X257365Y84600D01*
X255698D01*
X254865Y85433D01*
Y88765D01*
X27000Y84600D02*
X28666D01*
X27833D01*
Y89598D01*
X27000Y88765D01*
X607732Y84600D02*
X604400D01*
X607732Y87932D01*
Y88765D01*
X606899Y89598D01*
X605233D01*
X604400Y88765D01*
X611898Y84600D02*
Y89598D01*
X609398Y87099D01*
X612731D01*
X608232Y33800D02*
X604900D01*
X608232Y37132D01*
Y37965D01*
X607399Y38798D01*
X605733D01*
X604900Y37965D01*
X612397Y33800D02*
Y38798D01*
X609898Y36299D01*
X613231D01*
X251200Y33800D02*
X252866D01*
X252033D01*
Y38798D01*
X251200Y37965D01*
X255365D02*
X256198Y38798D01*
X257864D01*
X258698Y37965D01*
Y34633D01*
X257864Y33800D01*
X256198D01*
X255365Y34633D01*
Y37965D01*
X27700Y33800D02*
X29366D01*
X28533D01*
Y38798D01*
X27700Y37965D01*
X608232Y287800D02*
X604900D01*
X608232Y291132D01*
Y291965D01*
X607399Y292798D01*
X605733D01*
X604900Y291965D01*
X612397Y287800D02*
Y292798D01*
X609898Y290299D01*
X613231D01*
X251200Y287800D02*
X252866D01*
X252033D01*
Y292798D01*
X251200Y291965D01*
X255365D02*
X256198Y292798D01*
X257864D01*
X258698Y291965D01*
Y288633D01*
X257864Y287800D01*
X256198D01*
X255365Y288633D01*
Y291965D01*
X27700Y287800D02*
X29366D01*
X28533D01*
Y292798D01*
X27700Y291965D01*
X250700Y237000D02*
X252366D01*
X251533D01*
Y241998D01*
X250700Y241165D01*
X254865D02*
X255698Y241998D01*
X257365D01*
X258198Y241165D01*
Y237833D01*
X257365Y237000D01*
X255698D01*
X254865Y237833D01*
Y241165D01*
X27000Y237000D02*
X28666D01*
X27833D01*
Y241998D01*
X27000Y241165D01*
X607732Y237000D02*
X604400D01*
X607732Y240332D01*
Y241165D01*
X606899Y241998D01*
X605233D01*
X604400Y241165D01*
X611898Y237000D02*
Y241998D01*
X609398Y239499D01*
X612731D01*
X83285Y370097D02*
X79000D01*
X81142Y372239D02*
Y367954D01*
X672752Y258499D02*
X674418D01*
X673585D01*
Y253501D01*
X672752D01*
X674418D01*
X680250Y257666D02*
X679417Y258499D01*
X677750D01*
X676917Y257666D01*
Y254334D01*
X677750Y253501D01*
X679417D01*
X680250Y254334D01*
X681916Y257666D02*
X682749Y258499D01*
X684415D01*
X685248Y257666D01*
Y256833D01*
X684415Y256000D01*
X683582D01*
X684415D01*
X685248Y255167D01*
Y254334D01*
X684415Y253501D01*
X682749D01*
X681916Y254334D01*
X666666Y250916D02*
X667499Y251749D01*
Y253415D01*
X666666Y254248D01*
X663334D01*
X662501Y253415D01*
Y251749D01*
X663334Y250916D01*
X662501Y249250D02*
Y247584D01*
Y248417D01*
X667499D01*
X666666Y249250D01*
X662501Y241752D02*
Y245084D01*
X665833Y241752D01*
X666666D01*
X667499Y242585D01*
Y244251D01*
X666666Y245084D01*
X102585Y294501D02*
Y299499D01*
X105084D01*
X105917Y298666D01*
Y297000D01*
X105084Y296167D01*
X102585D01*
X104251D02*
X105917Y294501D01*
X107584D02*
X109250D01*
X108417D01*
Y299499D01*
X107584Y298666D01*
X111749Y294501D02*
X113415D01*
X112582D01*
Y299499D01*
X111749Y298666D01*
X17501Y345836D02*
X22499D01*
Y349169D01*
X17501Y350835D02*
X22499D01*
Y353334D01*
X21666Y354167D01*
X18334D01*
X17501Y353334D01*
Y350835D01*
Y358332D02*
Y356666D01*
X18334Y355833D01*
X21666D01*
X22499Y356666D01*
Y358332D01*
X21666Y359165D01*
X18334D01*
X17501Y358332D01*
X22499Y364164D02*
Y360831D01*
X19167Y364164D01*
X18334D01*
X17501Y363331D01*
Y361665D01*
X18334Y360831D01*
X63745Y359362D02*
Y364360D01*
X66244D01*
X67077Y363527D01*
Y361861D01*
X66244Y361028D01*
X63745D01*
X68743Y363527D02*
X69576Y364360D01*
X71242D01*
X72075Y363527D01*
Y362694D01*
X71242Y361861D01*
X72075Y361028D01*
Y360195D01*
X71242Y359362D01*
X69576D01*
X68743Y360195D01*
Y361028D01*
X69576Y361861D01*
X68743Y362694D01*
Y363527D01*
X69576Y361861D02*
X71242D01*
X102835Y317499D02*
Y312501D01*
X105334D01*
X106167Y313334D01*
Y316666D01*
X105334Y317499D01*
X102835D01*
X107833Y316666D02*
X108666Y317499D01*
X110332D01*
X111165Y316666D01*
Y315833D01*
X110332Y315000D01*
X109499D01*
X110332D01*
X111165Y314167D01*
Y313334D01*
X110332Y312501D01*
X108666D01*
X107833Y313334D01*
X35917Y316666D02*
X35084Y317499D01*
X33418D01*
X32585Y316666D01*
Y313334D01*
X33418Y312501D01*
X35084D01*
X35917Y313334D01*
X37583Y312501D02*
X39250D01*
X38417D01*
Y317499D01*
X37583Y316666D01*
X41749Y312501D02*
X43415D01*
X42582D01*
Y317499D01*
X41749Y316666D01*
X21084Y377666D02*
X20251Y378499D01*
X18585D01*
X17752Y377666D01*
Y374334D01*
X18585Y373501D01*
X20251D01*
X21084Y374334D01*
X22750Y373501D02*
X24416D01*
X23584D01*
Y378499D01*
X22750Y377666D01*
X26916D02*
X27749Y378499D01*
X29415D01*
X30248Y377666D01*
Y374334D01*
X29415Y373501D01*
X27749D01*
X26916Y374334D01*
Y377666D01*
X617336Y298499D02*
X620668D01*
X619002D01*
Y293501D01*
X622334D02*
Y298499D01*
X624833D01*
X625666Y297666D01*
Y296000D01*
X624833Y295167D01*
X622334D01*
X630664Y298499D02*
X627332D01*
Y296000D01*
X628998Y296833D01*
X629831D01*
X630664Y296000D01*
Y294334D01*
X629831Y293501D01*
X628165D01*
X627332Y294334D01*
X580336Y311499D02*
X583668D01*
X582002D01*
Y306501D01*
X585334D02*
Y311499D01*
X587833D01*
X588666Y310666D01*
Y309000D01*
X587833Y308167D01*
X585334D01*
X592831Y306501D02*
Y311499D01*
X590332Y309000D01*
X593665D01*
X682336Y308499D02*
X685668D01*
X684002D01*
Y303501D01*
X687334D02*
Y308499D01*
X689833D01*
X690666Y307666D01*
Y306000D01*
X689833Y305167D01*
X687334D01*
X692332Y307666D02*
X693165Y308499D01*
X694831D01*
X695665Y307666D01*
Y306833D01*
X694831Y306000D01*
X693998D01*
X694831D01*
X695665Y305167D01*
Y304334D01*
X694831Y303501D01*
X693165D01*
X692332Y304334D01*
X593335Y401499D02*
X596668D01*
X595002D01*
Y396501D01*
X598334D02*
Y401499D01*
X600833D01*
X601666Y400666D01*
Y399000D01*
X600833Y398167D01*
X598334D01*
X606665Y396501D02*
X603332D01*
X606665Y399833D01*
Y400666D01*
X605831Y401499D01*
X604165D01*
X603332Y400666D01*
X569501Y445169D02*
Y448501D01*
Y446835D01*
X574499D01*
Y450167D02*
X569501D01*
Y452666D01*
X570334Y453499D01*
X572000D01*
X572833Y452666D01*
Y450167D01*
X574499Y455165D02*
Y456831D01*
Y455998D01*
X569501D01*
X570334Y455165D01*
X702752Y370501D02*
Y375499D01*
X705251D01*
X706084Y374666D01*
Y373000D01*
X705251Y372167D01*
X702752D01*
X704418D02*
X706084Y370501D01*
X707750D02*
X709417D01*
X708584D01*
Y375499D01*
X707750Y374666D01*
X711916D02*
X712749Y375499D01*
X714415D01*
X715248Y374666D01*
Y371334D01*
X714415Y370501D01*
X712749D01*
X711916Y371334D01*
Y374666D01*
X711835Y321501D02*
Y326499D01*
X714334D01*
X715167Y325666D01*
Y324000D01*
X714334Y323167D01*
X711835D01*
X713501D02*
X715167Y321501D01*
X716833Y322334D02*
X717666Y321501D01*
X719332D01*
X720165Y322334D01*
Y325666D01*
X719332Y326499D01*
X717666D01*
X716833Y325666D01*
Y324833D01*
X717666Y324000D01*
X720165D01*
X580835Y318501D02*
Y323499D01*
X583334D01*
X584167Y322666D01*
Y321000D01*
X583334Y320167D01*
X580835D01*
X582501D02*
X584167Y318501D01*
X585833Y322666D02*
X586666Y323499D01*
X588332D01*
X589165Y322666D01*
Y321833D01*
X588332Y321000D01*
X589165Y320167D01*
Y319334D01*
X588332Y318501D01*
X586666D01*
X585833Y319334D01*
Y320167D01*
X586666Y321000D01*
X585833Y321833D01*
Y322666D01*
X586666Y321000D02*
X588332D01*
X635835Y294501D02*
Y299499D01*
X638334D01*
X639167Y298666D01*
Y297000D01*
X638334Y296167D01*
X635835D01*
X637501D02*
X639167Y294501D01*
X640833Y299499D02*
X644165D01*
Y298666D01*
X640833Y295334D01*
Y294501D01*
X577499Y377835D02*
X572501D01*
Y380334D01*
X573334Y381167D01*
X575000D01*
X575833Y380334D01*
Y377835D01*
Y379501D02*
X577499Y381167D01*
X572501Y386165D02*
X573334Y384499D01*
X575000Y382833D01*
X576666D01*
X577499Y383666D01*
Y385332D01*
X576666Y386165D01*
X575833D01*
X575000Y385332D01*
Y382833D01*
X690499Y447835D02*
X685501D01*
Y450334D01*
X686334Y451167D01*
X688000D01*
X688833Y450334D01*
Y447835D01*
Y449501D02*
X690499Y451167D01*
X685501Y456165D02*
Y452833D01*
X688000D01*
X687167Y454499D01*
Y455332D01*
X688000Y456165D01*
X689666D01*
X690499Y455332D01*
Y453666D01*
X689666Y452833D01*
X722835Y373501D02*
Y378499D01*
X725334D01*
X726167Y377666D01*
Y376000D01*
X725334Y375167D01*
X722835D01*
X724501D02*
X726167Y373501D01*
X730332D02*
Y378499D01*
X727833Y376000D01*
X731165D01*
X123835Y353501D02*
Y358499D01*
X126334D01*
X127167Y357666D01*
Y356000D01*
X126334Y355167D01*
X123835D01*
X125501D02*
X127167Y353501D01*
X128833Y357666D02*
X129666Y358499D01*
X131332D01*
X132165Y357666D01*
Y356833D01*
X131332Y356000D01*
X130499D01*
X131332D01*
X132165Y355167D01*
Y354334D01*
X131332Y353501D01*
X129666D01*
X128833Y354334D01*
X658835Y394501D02*
Y399499D01*
X661334D01*
X662167Y398666D01*
Y397000D01*
X661334Y396167D01*
X658835D01*
X660501D02*
X662167Y394501D01*
X667165D02*
X663833D01*
X667165Y397833D01*
Y398666D01*
X666332Y399499D01*
X664666D01*
X663833Y398666D01*
X578499Y422668D02*
X573501D01*
Y425167D01*
X574334Y426000D01*
X576000D01*
X576833Y425167D01*
Y422668D01*
Y424334D02*
X578499Y426000D01*
Y427666D02*
Y429332D01*
Y428499D01*
X573501D01*
X574334Y427666D01*
X167524Y382712D02*
Y387710D01*
X170023D01*
X170856Y386877D01*
Y385211D01*
X170023Y384378D01*
X167524D01*
X172522Y387710D02*
X175855D01*
Y386877D01*
X172522Y383545D01*
Y382712D01*
X152835Y446501D02*
Y451499D01*
X155334D01*
X156167Y450666D01*
Y449000D01*
X155334Y448167D01*
X152835D01*
X161165Y451499D02*
X159499Y450666D01*
X157833Y449000D01*
Y447334D01*
X158666Y446501D01*
X160332D01*
X161165Y447334D01*
Y448167D01*
X160332Y449000D01*
X157833D01*
X10835Y292501D02*
Y297499D01*
X13334D01*
X14167Y296666D01*
Y295000D01*
X13334Y294167D01*
X10835D01*
X19165Y297499D02*
X15833D01*
Y295000D01*
X17499Y295833D01*
X18332D01*
X19165Y295000D01*
Y293334D01*
X18332Y292501D01*
X16666D01*
X15833Y293334D01*
X8835Y37501D02*
Y42499D01*
X11334D01*
X12167Y41666D01*
Y40000D01*
X11334Y39167D01*
X8835D01*
X16332Y37501D02*
Y42499D01*
X13833Y40000D01*
X17165D01*
X672835Y382501D02*
Y387499D01*
X675334D01*
X676167Y386666D01*
Y385000D01*
X675334Y384167D01*
X672835D01*
X677833Y386666D02*
X678666Y387499D01*
X680332D01*
X681165Y386666D01*
Y385833D01*
X680332Y385000D01*
X679499D01*
X680332D01*
X681165Y384167D01*
Y383334D01*
X680332Y382501D01*
X678666D01*
X677833Y383334D01*
X73835Y388501D02*
Y393499D01*
X76334D01*
X77167Y392666D01*
Y391000D01*
X76334Y390167D01*
X73835D01*
X82165Y388501D02*
X78833D01*
X82165Y391833D01*
Y392666D01*
X81332Y393499D01*
X79666D01*
X78833Y392666D01*
X8668Y387501D02*
Y392499D01*
X11167D01*
X12000Y391666D01*
Y390000D01*
X11167Y389167D01*
X8668D01*
X13666Y387501D02*
X15332D01*
X14499D01*
Y392499D01*
X13666Y391666D01*
X86669Y457499D02*
Y452501D01*
X90002D01*
X91668Y457499D02*
Y452501D01*
X94167D01*
X95000Y453334D01*
Y456666D01*
X94167Y457499D01*
X91668D01*
X99165D02*
X97499D01*
X96666Y456666D01*
Y453334D01*
X97499Y452501D01*
X99165D01*
X99998Y453334D01*
Y456666D01*
X99165Y457499D01*
X101664Y452501D02*
X103331D01*
X102498D01*
Y457499D01*
X101664Y456666D01*
X13167Y247499D02*
X11501D01*
X12334D01*
Y243334D01*
X11501Y242501D01*
X10668D01*
X9835Y243334D01*
X18165Y247499D02*
X16499Y246666D01*
X14833Y245000D01*
Y243334D01*
X15666Y242501D01*
X17332D01*
X18165Y243334D01*
Y244167D01*
X17332Y245000D01*
X14833D01*
X13167Y98499D02*
X11501D01*
X12334D01*
Y94334D01*
X11501Y93501D01*
X10668D01*
X9835Y94334D01*
X18165Y98499D02*
X14833D01*
Y96000D01*
X16499Y96833D01*
X17332D01*
X18165Y96000D01*
Y94334D01*
X17332Y93501D01*
X15666D01*
X14833Y94334D01*
X530266Y366120D02*
X528600D01*
X529433D01*
Y361955D01*
X528600Y361122D01*
X527767D01*
X526934Y361955D01*
X534431Y361122D02*
Y366120D01*
X531932Y363621D01*
X535265D01*
X300396Y366120D02*
X298730D01*
X299563D01*
Y361955D01*
X298730Y361122D01*
X297897D01*
X297064Y361955D01*
X302062Y365287D02*
X302895Y366120D01*
X304562D01*
X305395Y365287D01*
Y364454D01*
X304562Y363621D01*
X303729D01*
X304562D01*
X305395Y362788D01*
Y361955D01*
X304562Y361122D01*
X302895D01*
X302062Y361955D01*
X295167Y453499D02*
X293501D01*
X294334D01*
Y449334D01*
X293501Y448501D01*
X292668D01*
X291835Y449334D01*
X300165Y448501D02*
X296833D01*
X300165Y451833D01*
Y452666D01*
X299332Y453499D01*
X297666D01*
X296833Y452666D01*
X527000Y451499D02*
X525334D01*
X526167D01*
Y447334D01*
X525334Y446501D01*
X524501D01*
X523668Y447334D01*
X528666Y446501D02*
X530332D01*
X529499D01*
Y451499D01*
X528666Y450666D01*
X610754Y381868D02*
X612420D01*
X611587D01*
Y376870D01*
X610754D01*
X612420D01*
X618252Y381035D02*
X617419Y381868D01*
X615752D01*
X614919Y381035D01*
Y377703D01*
X615752Y376870D01*
X617419D01*
X618252Y377703D01*
X623250Y376870D02*
X619918D01*
X623250Y380202D01*
Y381035D01*
X622417Y381868D01*
X620751D01*
X619918Y381035D01*
X611585Y397499D02*
X613251D01*
X612418D01*
Y392501D01*
X611585D01*
X613251D01*
X619083Y396666D02*
X618250Y397499D01*
X616584D01*
X615750Y396666D01*
Y393334D01*
X616584Y392501D01*
X618250D01*
X619083Y393334D01*
X620749Y392501D02*
X622415D01*
X621582D01*
Y397499D01*
X620749Y396666D01*
X591835Y375499D02*
Y370501D01*
X594334D01*
X595167Y371334D01*
Y374666D01*
X594334Y375499D01*
X591835D01*
X600165Y370501D02*
X596833D01*
X600165Y373833D01*
Y374666D01*
X599332Y375499D01*
X597666D01*
X596833Y374666D01*
X75668Y362499D02*
Y357501D01*
X78167D01*
X79000Y358334D01*
Y361666D01*
X78167Y362499D01*
X75668D01*
X80666Y357501D02*
X82332D01*
X81499D01*
Y362499D01*
X80666Y361666D01*
X179167Y407666D02*
X178334Y408499D01*
X176668D01*
X175835Y407666D01*
Y404334D01*
X176668Y403501D01*
X178334D01*
X179167Y404334D01*
X180833D02*
X181666Y403501D01*
X183332D01*
X184165Y404334D01*
Y407666D01*
X183332Y408499D01*
X181666D01*
X180833Y407666D01*
Y406833D01*
X181666Y406000D01*
X184165D01*
X228167Y407666D02*
X227334Y408499D01*
X225668D01*
X224835Y407666D01*
Y404334D01*
X225668Y403501D01*
X227334D01*
X228167Y404334D01*
X229833Y407666D02*
X230666Y408499D01*
X232332D01*
X233165Y407666D01*
Y406833D01*
X232332Y406000D01*
X233165Y405167D01*
Y404334D01*
X232332Y403501D01*
X230666D01*
X229833Y404334D01*
Y405167D01*
X230666Y406000D01*
X229833Y406833D01*
Y407666D01*
X230666Y406000D02*
X232332D01*
X600167Y322666D02*
X599334Y323499D01*
X597668D01*
X596835Y322666D01*
Y319334D01*
X597668Y318501D01*
X599334D01*
X600167Y319334D01*
X601833Y323499D02*
X605165D01*
Y322666D01*
X601833Y319334D01*
Y318501D01*
X693167Y374666D02*
X692334Y375499D01*
X690668D01*
X689835Y374666D01*
Y371334D01*
X690668Y370501D01*
X692334D01*
X693167Y371334D01*
X698165Y375499D02*
X696499Y374666D01*
X694833Y373000D01*
Y371334D01*
X695666Y370501D01*
X697332D01*
X698165Y371334D01*
Y372167D01*
X697332Y373000D01*
X694833D01*
X14167Y196666D02*
X13334Y197499D01*
X11668D01*
X10835Y196666D01*
Y193334D01*
X11668Y192501D01*
X13334D01*
X14167Y193334D01*
X19165Y197499D02*
X15833D01*
Y195000D01*
X17499Y195833D01*
X18332D01*
X19165Y195000D01*
Y193334D01*
X18332Y192501D01*
X16666D01*
X15833Y193334D01*
X676167Y398666D02*
X675334Y399499D01*
X673668D01*
X672835Y398666D01*
Y395334D01*
X673668Y394501D01*
X675334D01*
X676167Y395334D01*
X680332Y394501D02*
Y399499D01*
X677833Y397000D01*
X681165D01*
X46167Y414666D02*
X45334Y415499D01*
X43668D01*
X42835Y414666D01*
Y411334D01*
X43668Y410501D01*
X45334D01*
X46167Y411334D01*
X47833Y414666D02*
X48666Y415499D01*
X50332D01*
X51165Y414666D01*
Y413833D01*
X50332Y413000D01*
X49499D01*
X50332D01*
X51165Y412167D01*
Y411334D01*
X50332Y410501D01*
X48666D01*
X47833Y411334D01*
X46167Y429666D02*
X45334Y430499D01*
X43668D01*
X42835Y429666D01*
Y426334D01*
X43668Y425501D01*
X45334D01*
X46167Y426334D01*
X51165Y425501D02*
X47833D01*
X51165Y428833D01*
Y429666D01*
X50332Y430499D01*
X48666D01*
X47833Y429666D01*
X47000Y445666D02*
X46167Y446499D01*
X44501D01*
X43668Y445666D01*
Y442334D01*
X44501Y441501D01*
X46167D01*
X47000Y442334D01*
X48666Y441501D02*
X50332D01*
X49499D01*
Y446499D01*
X48666Y445666D01*
D12*
X99236Y446764D02*
X132764D01*
X99236Y413236D02*
X132764D01*
D13*
X69793Y312442D02*
X63263D01*
X66528Y315707D02*
Y309177D01*
D14*
X718501Y390499D02*
X718001Y390000D01*
Y389000D01*
X718501Y388500D01*
X720500D01*
X721000Y389000D01*
Y390000D01*
X720500Y390499D01*
X721000Y391499D02*
X718001D01*
X719001Y392499D01*
X718001Y393498D01*
X721000D01*
Y394498D02*
X718001D01*
Y395998D01*
X718501Y396497D01*
X719501D01*
X720001Y395998D01*
Y394498D01*
X721500Y397497D02*
Y399496D01*
X718001Y402495D02*
Y400496D01*
X721000D01*
Y402495D01*
X719501Y400496D02*
Y401496D01*
X721000Y403495D02*
X718001D01*
X721000Y405494D01*
X718001D01*
M02*
