G04*
G04 #@! TF.GenerationSoftware,Altium Limited,Altium Designer,20.1.12 (249)*
G04*
G04 Layer_Color=16711935*
%FSLAX44Y44*%
%MOMM*%
G71*
G04*
G04 #@! TF.SameCoordinates,5963EE20-531D-4955-9439-85CF453D8019*
G04*
G04*
G04 #@! TF.FilePolarity,Negative*
G04*
G01*
G75*
%ADD35C,1.8032*%
%ADD36R,1.8032X1.8032*%
%ADD37C,1.7232*%
%ADD38R,1.7232X1.7232*%
%ADD39C,1.3232*%
%ADD40C,1.5132*%
%ADD41R,1.8032X1.8032*%
%ADD42C,0.7016*%
D35*
X104642Y337700D02*
D03*
X613100Y16800D02*
D03*
X587700D02*
D03*
X562300D02*
D03*
X536900D02*
D03*
X511500D02*
D03*
X384500D02*
D03*
X308300D02*
D03*
X282900D02*
D03*
X257500D02*
D03*
X206700D02*
D03*
X181300D02*
D03*
X130500D02*
D03*
X79700D02*
D03*
X54300D02*
D03*
X105100D02*
D03*
X155900D02*
D03*
X232100D02*
D03*
X333700D02*
D03*
X359100D02*
D03*
X409900D02*
D03*
X435300D02*
D03*
X460700D02*
D03*
X486100D02*
D03*
X613100Y270800D02*
D03*
X587700D02*
D03*
X562300D02*
D03*
X536900D02*
D03*
X511500D02*
D03*
X384500D02*
D03*
X308300D02*
D03*
X282900D02*
D03*
X257500D02*
D03*
X206700D02*
D03*
X181300D02*
D03*
X130500D02*
D03*
X79700D02*
D03*
X54300D02*
D03*
X105100D02*
D03*
X155900D02*
D03*
X232100D02*
D03*
X333700D02*
D03*
X359100D02*
D03*
X409900D02*
D03*
X435300D02*
D03*
X460700D02*
D03*
X486100D02*
D03*
X182900Y431000D02*
D03*
X208300D02*
D03*
X233700D02*
D03*
X102300Y394231D02*
D03*
X16000Y438700D02*
D03*
X701220Y423150D02*
D03*
X182900Y361000D02*
D03*
X208300D02*
D03*
X233700D02*
D03*
D36*
X79243Y337700D02*
D03*
X28900Y16800D02*
D03*
Y270800D02*
D03*
X259100Y431000D02*
D03*
X127700Y394231D02*
D03*
X259100Y361000D02*
D03*
D37*
X435300Y67600D02*
D03*
X409900D02*
D03*
X308300D02*
D03*
X257500D02*
D03*
X181300D02*
D03*
X79700D02*
D03*
X54300D02*
D03*
X105100D02*
D03*
X130500D02*
D03*
X155900D02*
D03*
X206700D02*
D03*
X232100D02*
D03*
X282900D02*
D03*
X333700D02*
D03*
X359100D02*
D03*
X384500D02*
D03*
X460700D02*
D03*
X486100D02*
D03*
X511500D02*
D03*
X536900D02*
D03*
X562300D02*
D03*
X587700D02*
D03*
X613100D02*
D03*
X435300Y220000D02*
D03*
X409900D02*
D03*
X308300D02*
D03*
X257500D02*
D03*
X181300D02*
D03*
X79700D02*
D03*
X54300D02*
D03*
X105100D02*
D03*
X130500D02*
D03*
X155900D02*
D03*
X206700D02*
D03*
X232100D02*
D03*
X282900D02*
D03*
X333700D02*
D03*
X359100D02*
D03*
X384500D02*
D03*
X460700D02*
D03*
X486100D02*
D03*
X511500D02*
D03*
X536900D02*
D03*
X562300D02*
D03*
X587700D02*
D03*
X613100D02*
D03*
D38*
X28900Y67600D02*
D03*
Y220000D02*
D03*
D39*
X732852Y417600D02*
D03*
X758252Y443000D02*
D03*
X783652Y417600D02*
D03*
Y335000D02*
D03*
X758252Y360400D02*
D03*
X732852Y335000D02*
D03*
D40*
X551000Y440000D02*
D03*
X321000D02*
D03*
Y330000D02*
D03*
X551000D02*
D03*
D41*
X16000Y413300D02*
D03*
X701220Y397750D02*
D03*
D42*
X689000Y324000D02*
D03*
X684000Y371000D02*
D03*
X9000Y313000D02*
D03*
X14000Y173000D02*
D03*
X143000Y361000D02*
D03*
X151419Y427581D02*
D03*
X640906Y409094D02*
D03*
X48000Y436000D02*
D03*
X688000Y444000D02*
D03*
M02*
