G04*
G04 #@! TF.GenerationSoftware,Altium Limited,Altium Designer,20.1.12 (249)*
G04*
G04 Layer_Color=32768*
%FSLAX44Y44*%
%MOMM*%
G71*
G04*
G04 #@! TF.SameCoordinates,5963EE20-531D-4955-9439-85CF453D8019*
G04*
G04*
G04 #@! TF.FilePolarity,Positive*
G04*
G01*
G75*
%ADD14C,0.0500*%
D14*
X646800Y235457D02*
Y259958D01*
X659200D01*
Y235457D02*
Y259958D01*
X646800Y235457D02*
X659200D01*
X645250Y263000D02*
X686750D01*
X645250D02*
Y297000D01*
X686750D01*
Y263000D02*
Y297000D01*
X33750Y381193D02*
X58250D01*
Y368792D02*
Y381193D01*
X33750Y368792D02*
X58250D01*
X33750D02*
Y381193D01*
X71750Y290765D02*
X96250D01*
X71750D02*
Y303165D01*
X96250D01*
Y290765D02*
Y303165D01*
X46800Y296707D02*
Y321208D01*
X59200D01*
Y296707D02*
Y321208D01*
X46800Y296707D02*
X59200D01*
X79263Y312708D02*
X89263D01*
X84263Y307708D02*
Y317708D01*
X70263Y306208D02*
X98263D01*
X70263D02*
Y319207D01*
X98263D01*
Y306208D02*
Y319207D01*
X60000Y324250D02*
Y365750D01*
X26000Y324250D02*
X60000D01*
X26000D02*
Y365750D01*
X60000D01*
X63042Y353150D02*
X120843D01*
Y322250D02*
Y353150D01*
X63042Y322250D02*
X120843D01*
X63042D02*
Y353150D01*
X91943Y332700D02*
Y342700D01*
X86943Y337700D02*
X96943D01*
X577500Y371500D02*
Y394500D01*
X588500D01*
Y371500D02*
Y394500D01*
X577500Y371500D02*
X588500D01*
X578742Y414500D02*
Y437500D01*
X589743D01*
Y414500D02*
Y437500D01*
X578742Y414500D02*
X589743D01*
X22750Y188800D02*
X47250D01*
X22750D02*
Y201200D01*
X47250D01*
Y188800D02*
Y201200D01*
X321000Y62600D02*
Y72600D01*
X316000Y67600D02*
X326000D01*
X10450Y52100D02*
Y83100D01*
Y52100D02*
X631550D01*
Y83100D01*
X10450D02*
X631550D01*
X12700Y32250D02*
X629300D01*
Y1350D02*
Y32250D01*
X12700Y1350D02*
X629300D01*
X12700D02*
Y32250D01*
X321000Y11800D02*
Y21800D01*
X316000Y16800D02*
X326000D01*
X12700Y286250D02*
X629300D01*
Y255350D02*
Y286250D01*
X12700Y255350D02*
X629300D01*
X12700D02*
Y286250D01*
X321000Y265800D02*
Y275800D01*
X316000Y270800D02*
X326000D01*
X321000Y215000D02*
Y225000D01*
X316000Y220000D02*
X326000D01*
X10450Y204500D02*
Y235500D01*
Y204500D02*
X631550D01*
Y235500D01*
X10450D02*
X631550D01*
X592785Y455520D02*
X667285D01*
Y400480D02*
Y455520D01*
X592785Y400480D02*
X667285D01*
X592785D02*
Y455520D01*
X716670Y442393D02*
Y454793D01*
X692170D02*
X716670D01*
X692170Y442393D02*
Y454793D01*
Y442393D02*
X716670D01*
X671728Y402707D02*
Y425708D01*
X682728D01*
Y402707D02*
Y425708D01*
X671728Y402707D02*
X682728D01*
X703070Y368250D02*
X715470D01*
X703070Y343750D02*
Y368250D01*
Y343750D02*
X715470D01*
Y368250D01*
X700027Y343750D02*
Y368250D01*
X687627Y343750D02*
X700027D01*
X687627D02*
Y368250D01*
X700027D01*
X636500Y312437D02*
X659500D01*
Y301437D02*
Y312437D01*
X636500Y301437D02*
X659500D01*
X636500D02*
Y312437D01*
X594243Y328515D02*
Y353015D01*
X606642D01*
Y328515D02*
Y353015D01*
X594243Y328515D02*
X606642D01*
X578800D02*
X591200D01*
Y353015D01*
X578800D02*
X591200D01*
X578800Y328515D02*
Y353015D01*
X582542Y356058D02*
Y368457D01*
Y356058D02*
X607043D01*
Y368457D01*
X582542D02*
X607043D01*
X526300Y464700D02*
X575700D01*
Y415300D02*
Y464700D01*
X526300Y415300D02*
X575700D01*
X526300D02*
Y464700D01*
X296300D02*
X345700D01*
Y415300D02*
Y464700D01*
X296300Y415300D02*
X345700D01*
X296300D02*
Y464700D01*
X239800Y384750D02*
Y409250D01*
X252200D01*
Y384750D02*
Y409250D01*
X239800Y384750D02*
X252200D01*
X188800D02*
Y409250D01*
X201200D01*
Y384750D02*
Y409250D01*
X188800Y384750D02*
X201200D01*
X216000Y431000D02*
X226000D01*
X221000Y426000D02*
Y436000D01*
X166700Y415550D02*
X275300D01*
X166700D02*
Y446450D01*
X275300D01*
Y415550D02*
Y446450D01*
X86100Y378782D02*
X143900D01*
X86100D02*
Y409682D01*
X143900D01*
Y378782D02*
Y409682D01*
X115000Y389231D02*
Y399231D01*
X110000Y394231D02*
X120000D01*
X550Y397100D02*
Y454900D01*
X31450D01*
Y397100D02*
Y454900D01*
X550Y397100D02*
X31450D01*
X11000Y426000D02*
X21000D01*
X16000Y421000D02*
Y431000D01*
X56750Y450200D02*
X81250D01*
Y437800D02*
Y450200D01*
X56750Y437800D02*
X81250D01*
X56750D02*
Y450200D01*
Y434200D02*
X81250D01*
Y421800D02*
Y434200D01*
X56750Y421800D02*
X81250D01*
X56750D02*
Y434200D01*
Y418758D02*
X81250D01*
Y406357D02*
Y418758D01*
X56750Y406357D02*
X81250D01*
X56750D02*
Y418758D01*
X117043Y363039D02*
Y375439D01*
Y363039D02*
X141543D01*
Y375439D01*
X117043D02*
X141543D01*
X95000Y369239D02*
X105000D01*
X100000Y364239D02*
Y374239D01*
X86000Y362739D02*
X114000D01*
X86000D02*
Y375739D01*
X114000D01*
Y362739D02*
Y375739D01*
X682728Y428750D02*
Y453250D01*
X670328Y428750D02*
X682728D01*
X670328D02*
Y453250D01*
X682728D01*
X685770Y381550D02*
Y439350D01*
X716670D01*
Y381550D02*
Y439350D01*
X685770Y381550D02*
X716670D01*
X696220Y410450D02*
X706220D01*
X701220Y405450D02*
Y415450D01*
X296300Y354700D02*
X345700D01*
Y305300D02*
Y354700D01*
X296300Y305300D02*
X345700D01*
X296300D02*
Y354700D01*
X526300D02*
X575700D01*
Y305300D02*
Y354700D01*
X526300Y305300D02*
X575700D01*
X526300D02*
Y354700D01*
X610085Y370520D02*
X684585D01*
Y315480D02*
Y370520D01*
X610085Y315480D02*
X684585D01*
X610085D02*
Y370520D01*
X216000Y361000D02*
X226000D01*
X221000Y356000D02*
Y366000D01*
X166700Y345550D02*
X275300D01*
X166700D02*
Y376450D01*
X275300D01*
Y345550D02*
Y376450D01*
M02*
