G04*
G04 #@! TF.GenerationSoftware,Altium Limited,Altium Designer,20.1.12 (249)*
G04*
G04 Layer_Physical_Order=1*
G04 Layer_Color=255*
%FSLAX44Y44*%
%MOMM*%
G71*
G04*
G04 #@! TF.SameCoordinates,28A8639E-1F06-4054-8E9C-96101E26D361*
G04*
G04*
G04 #@! TF.FilePolarity,Positive*
G04*
G01*
G75*
%ADD13R,0.9400X0.8300*%
%ADD14R,0.8300X0.9400*%
%ADD15R,1.0500X0.6000*%
%ADD16R,0.6000X1.0500*%
%ADD17R,1.3970X0.4318*%
%ADD18R,0.6000X1.2000*%
%ADD19R,0.8000X0.8000*%
%ADD34C,0.5000*%
%ADD35C,0.3500*%
%ADD36C,0.2540*%
%ADD37C,0.5080*%
%ADD38C,1.6000*%
%ADD39R,1.6000X1.6000*%
%ADD40R,1.6000X1.6000*%
%ADD41C,1.5200*%
%ADD42R,1.5200X1.5200*%
%ADD43C,1.3100*%
%ADD44C,0.6000*%
D13*
X590685Y368600D02*
D03*
Y355400D02*
D03*
X410000Y18400D02*
D03*
Y31600D02*
D03*
X442000D02*
D03*
Y18400D02*
D03*
X425000Y31600D02*
D03*
Y18400D02*
D03*
X273250Y457400D02*
D03*
Y470600D02*
D03*
X325000Y457400D02*
D03*
Y470600D02*
D03*
X144159Y428900D02*
D03*
Y442100D02*
D03*
X84174Y426150D02*
D03*
Y439350D02*
D03*
X202750Y394581D02*
D03*
Y407781D02*
D03*
X203043Y474387D02*
D03*
Y461186D02*
D03*
X581750Y483635D02*
D03*
Y470435D02*
D03*
X622000Y144943D02*
D03*
Y131742D02*
D03*
D14*
X458400Y19000D02*
D03*
X471600D02*
D03*
Y31750D02*
D03*
X458400D02*
D03*
X73258Y482807D02*
D03*
X86459D02*
D03*
X73258Y498250D02*
D03*
X86459D02*
D03*
X73008Y467365D02*
D03*
X86208D02*
D03*
X476900Y451750D02*
D03*
X490100D02*
D03*
D15*
X547692Y355792D02*
D03*
Y346292D02*
D03*
Y336792D02*
D03*
X573692D02*
D03*
Y355792D02*
D03*
X101167Y441389D02*
D03*
Y431889D02*
D03*
Y422389D02*
D03*
X127167D02*
D03*
Y441389D02*
D03*
D16*
X610043Y428000D02*
D03*
X619543D02*
D03*
X629043D02*
D03*
Y454000D02*
D03*
X610043D02*
D03*
D17*
X102902Y494750D02*
D03*
Y488250D02*
D03*
Y481750D02*
D03*
Y475250D02*
D03*
X147098D02*
D03*
Y481750D02*
D03*
Y488250D02*
D03*
Y494750D02*
D03*
D18*
X572250Y453243D02*
D03*
X581750D02*
D03*
X591250D02*
D03*
Y428243D02*
D03*
X581750D02*
D03*
X572250D02*
D03*
D19*
X202743Y438474D02*
D03*
Y422474D02*
D03*
Y505079D02*
D03*
Y489079D02*
D03*
D34*
X325000Y470600D02*
X336900D01*
X360000Y402500D02*
Y447500D01*
X336900Y470600D02*
X360000Y447500D01*
X337350Y482400D02*
Y495750D01*
X325550Y470600D02*
X337350Y482400D01*
X325000Y470600D02*
Y482700D01*
X311950Y495750D02*
X325000Y482700D01*
X113750Y481750D02*
X136816Y504816D01*
X490100Y451750D02*
Y458900D01*
X521200Y490000D01*
X489447Y452403D02*
Y460553D01*
X405309Y465000D02*
X485000D01*
X489447Y452403D02*
X490100Y451750D01*
X485000Y465000D02*
X489447Y460553D01*
X361519Y508790D02*
X405309Y465000D01*
X306549Y508790D02*
X361519D01*
X298910Y501152D02*
X306549Y508790D01*
X298360Y498862D02*
X298910Y499412D01*
Y501152D01*
X177750Y467550D02*
X195300Y450000D01*
X221379D02*
X241979Y470600D01*
X195300Y450000D02*
X221379D01*
X31150Y426150D02*
X109800Y347500D01*
X25000Y432300D02*
X31150Y426150D01*
X252792Y347500D02*
X337350Y432058D01*
X109800Y347500D02*
X252792D01*
X521200Y490000D02*
X540765Y470435D01*
X581750D01*
X619120Y142063D02*
X622000Y144943D01*
X202750Y394581D02*
X223674D01*
X261150Y432058D01*
X51350Y426150D02*
X84174D01*
X51350D02*
X75000Y402500D01*
X31150Y426150D02*
X51350D01*
X143609Y428900D02*
X144159D01*
X138040Y423330D02*
X143609Y428900D01*
X138040Y417884D02*
Y423330D01*
X122656Y402500D02*
X138040Y417884D01*
X75000Y402500D02*
X122656D01*
X57500Y462500D02*
Y475000D01*
Y462500D02*
X67500Y452500D01*
X73133Y467490D02*
Y482132D01*
X67500Y452500D02*
X96424D01*
X119174Y475250D01*
X147098D01*
Y481750D01*
Y488250D01*
Y494750D01*
X325000Y445108D02*
Y457400D01*
X311950Y432058D02*
X325000Y445108D01*
X273250Y444158D02*
Y457400D01*
X261150Y432058D02*
X273250Y444158D01*
X557500Y240000D02*
X602100D01*
X25429D02*
X557500D01*
X622000Y144943D02*
Y175500D01*
X557500Y240000D02*
X622000Y175500D01*
X22500Y429800D02*
X25000Y432300D01*
X22500Y242929D02*
Y429800D01*
Y242929D02*
X25429Y240000D01*
X602100D02*
X622100Y260000D01*
X73133Y482132D02*
X73258Y482257D01*
X71608Y480607D02*
X73133Y482132D01*
X73258Y482257D02*
Y482807D01*
X71058Y480607D02*
X71608D01*
X65642Y475191D02*
X71058Y480607D01*
X57691Y475191D02*
X65642D01*
X57500Y475000D02*
X57691Y475191D01*
X73258Y482807D02*
Y498250D01*
X73008Y467365D02*
X73133Y467490D01*
X84174Y426150D02*
X84724D01*
X88734Y430160D01*
X90962D01*
X92191Y431389D01*
X100667D01*
X101167Y431889D01*
X610043Y454000D02*
Y456250D01*
X608313Y457980D02*
X610043Y456250D01*
X606063Y457980D02*
X608313D01*
X593608Y470435D02*
X606063Y457980D01*
X581750Y470435D02*
X593608D01*
X241979Y470600D02*
X272700D01*
X261150Y482150D02*
X272700Y470600D01*
X261150Y482150D02*
Y495750D01*
X272700Y470600D02*
X273250D01*
X286550Y483350D02*
Y495750D01*
X276680Y473480D02*
X286550Y483350D01*
X276680Y473480D02*
X283864D01*
X298360Y487976D01*
X273250Y470600D02*
X273800D01*
X276680Y473480D01*
X298360Y487976D02*
Y498862D01*
X581750Y453243D02*
Y470435D01*
X127167Y441389D02*
X143448D01*
X144159Y442100D01*
X167758D01*
X177750Y432107D01*
X196376D01*
X202743Y438474D01*
X136816Y504816D02*
X165884D01*
X177750Y492950D01*
D35*
X102902Y481750D02*
X113750D01*
X102902Y488250D02*
Y494750D01*
D36*
X624464Y437060D02*
X633621D01*
X630000Y367308D02*
Y370950D01*
X621273Y433868D02*
X624464Y437060D01*
X630000Y370950D02*
X635853Y376803D01*
X621273Y429730D02*
Y433868D01*
X635853Y376803D02*
Y434828D01*
X619543Y428000D02*
X621273Y429730D01*
X633621Y437060D02*
X635853Y434828D01*
X203043Y461186D02*
X213686D01*
X215000Y462500D01*
X481510Y121510D02*
X502063Y142063D01*
X622100Y260000D02*
Y310800D01*
X581200Y483635D02*
X581750D01*
X572997Y491838D02*
X581200Y483635D01*
X568162Y491838D02*
X572997D01*
X567500Y492500D02*
X568162Y491838D01*
X591235Y368600D02*
X596475Y363360D01*
X599195Y361128D02*
X622100Y338223D01*
X596963Y363360D02*
X599195Y361128D01*
X590685Y368600D02*
X591235D01*
X596475Y363360D02*
X596963D01*
X622100Y310800D02*
Y338223D01*
X471600Y19000D02*
Y19550D01*
X474480Y22430D01*
X504430D01*
X505000Y23000D01*
X481510Y45000D02*
Y121510D01*
Y42210D02*
Y45000D01*
X491700Y34810D02*
X509892D01*
X481510Y45000D02*
X491700Y34810D01*
X525968Y11928D02*
Y18734D01*
X509892Y34810D02*
X525968Y18734D01*
X524480Y10440D02*
X525968Y11928D01*
X418510Y10440D02*
X524480D01*
X410550Y18400D02*
X418510Y10440D01*
X410000Y18400D02*
X410550D01*
X502063Y142063D02*
X619120D01*
X471600Y32300D02*
X481510Y42210D01*
X471600Y31750D02*
Y32300D01*
X573692Y355792D02*
Y368808D01*
X565000Y377500D02*
X573692Y368808D01*
X418900Y56800D02*
Y107600D01*
X458400Y19000D02*
Y31750D01*
X442000Y18400D02*
X457800D01*
X458400Y19000D01*
X441450Y31600D02*
X442000D01*
X418900Y54150D02*
X441450Y31600D01*
X418900Y54150D02*
Y56800D01*
X425000Y18400D02*
X425550D01*
X430790Y23640D01*
X433002D01*
X435722Y26360D01*
X436210D01*
X441450Y31600D01*
X410000D02*
X425000D01*
X410000D02*
Y40300D01*
X393500Y56800D02*
X410000Y40300D01*
X445000Y413800D02*
X474020Y442820D01*
Y448870D01*
X476900Y451750D01*
X581025Y427517D02*
X581750Y428243D01*
X581025Y401975D02*
Y427517D01*
X580300Y401250D02*
X581025Y401975D01*
X619543Y418940D02*
X624121D01*
X614964D02*
X619543D01*
X590685Y390865D02*
X592110Y389440D01*
X580300Y401250D02*
X590685Y390865D01*
X619543Y393705D02*
Y418940D01*
X615278Y389440D02*
X619543Y393705D01*
X592110Y389440D02*
X615278D01*
X627313Y426270D02*
X629043Y428000D01*
X627313Y422132D02*
Y426270D01*
X624121Y418940D02*
X627313Y422132D01*
X611773D02*
X614964Y418940D01*
X611773Y422132D02*
Y426270D01*
X610043Y428000D02*
X611773Y426270D01*
X580521Y329982D02*
X599195Y348657D01*
X566864Y329982D02*
X580521D01*
X560054Y336792D02*
X566864Y329982D01*
X547692Y336792D02*
X560054D01*
X599195Y348657D02*
Y361128D01*
X547692Y336792D02*
Y346292D01*
X569712Y338522D02*
X571442Y336792D01*
X556752Y353732D02*
Y360371D01*
Y353732D02*
X569712Y340772D01*
Y338522D02*
Y340772D01*
X590685Y368600D02*
Y390865D01*
X573692Y355792D02*
X590293D01*
X590685Y355400D01*
X523243Y453243D02*
X572250D01*
X493000Y423000D02*
X523243Y453243D01*
X493000Y395000D02*
Y423000D01*
Y395000D02*
X510000Y378000D01*
X539123D01*
X571442Y336792D02*
X573692D01*
X539123Y378000D02*
X556752Y360371D01*
X572250Y425242D02*
Y428243D01*
X521200Y413800D02*
X560807D01*
X572250Y425242D01*
X520700Y344743D02*
X532510D01*
X536687Y348920D01*
Y348925D01*
X541824Y354062D01*
X545962D01*
X547692Y355792D01*
X495100Y260000D02*
Y310800D01*
X495200Y344643D02*
X495300Y344743D01*
X495200Y310900D02*
Y344643D01*
X495100Y310800D02*
X495200Y310900D01*
X591250Y450243D02*
Y453243D01*
Y450243D02*
X592980Y448513D01*
X601892D01*
X608734Y441670D01*
X610010D01*
X617813Y433868D01*
Y429730D02*
Y433868D01*
Y429730D02*
X619543Y428000D01*
X629043Y454000D02*
Y480957D01*
X611000Y499000D02*
X629043Y480957D01*
X622100Y56800D02*
Y107600D01*
X622000Y107700D02*
Y131742D01*
Y107700D02*
X622100Y107600D01*
X596700Y56800D02*
Y107600D01*
X444550Y260250D02*
Y310800D01*
X266750Y260250D02*
Y310800D01*
X241096Y260004D02*
Y310800D01*
X215950Y260250D02*
Y310800D01*
X88950Y260250D02*
Y310800D01*
X63550Y260250D02*
Y310800D01*
X38150Y260250D02*
Y310800D01*
X571296Y56800D02*
Y107596D01*
X545896Y56800D02*
Y107596D01*
X495350Y56800D02*
Y107350D01*
X469696Y56800D02*
Y107596D01*
X342696Y56800D02*
Y107596D01*
X291896Y56800D02*
Y107596D01*
X241350Y56800D02*
Y107350D01*
X215696Y56800D02*
Y107596D01*
X190296Y56800D02*
Y107596D01*
X139496Y56800D02*
Y107596D01*
X88696Y56800D02*
Y107596D01*
X571296Y56800D02*
X571300D01*
X571296Y107596D02*
X571300Y107600D01*
X545896Y56800D02*
X545900D01*
X545896Y107596D02*
X545900Y107600D01*
X520500Y56800D02*
Y107600D01*
X495100Y56800D02*
X495350D01*
X495100Y107600D02*
X495350Y107350D01*
X469696Y56800D02*
X469700D01*
X469696Y107596D02*
X469700Y107600D01*
X444300Y56800D02*
Y107600D01*
X393500Y56800D02*
Y107600D01*
X368100Y56800D02*
Y107600D01*
X342696Y56800D02*
X342700D01*
X342696Y107596D02*
X342700Y107600D01*
X317300Y56800D02*
Y107600D01*
X291896Y56800D02*
X291900D01*
X291896Y107596D02*
X291900Y107600D01*
X266500Y56800D02*
Y107600D01*
X241100Y56800D02*
X241350D01*
X241100Y107600D02*
X241350Y107350D01*
X215696Y56800D02*
X215700D01*
X215696Y107596D02*
X215700Y107600D01*
X190296Y56800D02*
X190300D01*
X190296Y107596D02*
X190300Y107600D01*
X164900Y56800D02*
Y107600D01*
X139496Y56800D02*
X139500D01*
X139496Y107596D02*
X139500Y107600D01*
X114100Y56800D02*
Y107600D01*
X88696Y56800D02*
X88700D01*
X88696Y107596D02*
X88700Y107600D01*
X63300Y56800D02*
Y107600D01*
X37900Y56800D02*
Y107600D01*
X444300Y310800D02*
X444550D01*
X444300Y260000D02*
X444550Y260250D01*
X418900Y293868D02*
Y310800D01*
Y293868D02*
X419150Y293618D01*
Y260250D02*
Y293618D01*
X418900Y260000D02*
X419150Y260250D01*
X393500Y260000D02*
Y310800D01*
X368100Y293868D02*
Y310800D01*
Y293868D02*
X368350Y293618D01*
Y260250D02*
Y293618D01*
X368100Y260000D02*
X368350Y260250D01*
X342700Y260000D02*
Y310800D01*
X317300Y293868D02*
Y310800D01*
Y293868D02*
X317550Y293618D01*
Y260250D02*
Y293618D01*
X317300Y260000D02*
X317550Y260250D01*
X291900Y260000D02*
Y310800D01*
X266500D02*
X266750D01*
X266500Y260000D02*
X266750Y260250D01*
X241096Y310800D02*
X241100D01*
X241096Y260004D02*
X241100Y260000D01*
X215700Y310800D02*
X215950D01*
X215700Y260000D02*
X215950Y260250D01*
X190300Y293868D02*
Y310800D01*
Y293868D02*
X190550Y293618D01*
Y260250D02*
Y293618D01*
X190300Y260000D02*
X190550Y260250D01*
X164900Y260000D02*
Y310800D01*
X139500Y293868D02*
Y310800D01*
Y293868D02*
X139750Y293618D01*
Y260250D02*
Y293618D01*
X139500Y260000D02*
X139750Y260250D01*
X114100Y260000D02*
Y310800D01*
X88700D02*
X88950D01*
X88700Y260000D02*
X88950Y260250D01*
X63300Y310800D02*
X63550D01*
X63300Y260000D02*
X63550Y260250D01*
X37900Y310800D02*
X38150D01*
X37900Y260000D02*
X38150Y260250D01*
X86208Y467365D02*
Y467915D01*
X89089Y470795D01*
X93621D01*
X98076Y475250D01*
X102902D01*
X86459Y482807D02*
X93813D01*
X94339Y482281D01*
X102371D01*
X102902Y481750D01*
X177750Y492950D02*
X190613D01*
X202743Y505079D01*
Y474687D02*
X203043Y474387D01*
X202743Y474687D02*
Y489079D01*
X202750Y407781D02*
Y422467D01*
X202743Y422474D02*
X202750Y422467D01*
X591250Y415700D02*
X605700Y401250D01*
X591250Y415700D02*
Y428243D01*
X596700Y260000D02*
Y310800D01*
X571300Y260000D02*
Y310800D01*
X545900Y260000D02*
Y310800D01*
X520500Y260000D02*
Y310800D01*
X469700Y260000D02*
Y310800D01*
D37*
X101167Y422389D02*
X101627Y422849D01*
X107561D01*
X111497Y426785D01*
Y436993D01*
X108521Y439969D02*
X111497Y436993D01*
X104837Y439969D02*
X108521D01*
X103417Y441389D02*
X104837Y439969D01*
X101167Y441389D02*
X103417D01*
X86764D02*
X101167D01*
X25000Y457700D02*
X43350Y439350D01*
X84174D01*
X25000Y457700D02*
Y482000D01*
X53000Y510000D01*
X83483D01*
X84848Y508634D01*
Y499860D02*
Y508634D01*
Y499860D02*
X86459Y498250D01*
X95481D01*
X98457Y495274D01*
Y495131D02*
Y495274D01*
Y495131D02*
X98838Y494750D01*
X102902D01*
D38*
X630000Y367308D02*
D03*
X611000Y499000D02*
D03*
X505000Y23000D02*
D03*
X37900Y56800D02*
D03*
X63300D02*
D03*
X88700D02*
D03*
X114100D02*
D03*
X139500D02*
D03*
X266500D02*
D03*
X342700D02*
D03*
X368100D02*
D03*
X393500D02*
D03*
X444300D02*
D03*
X469700D02*
D03*
X520500D02*
D03*
X571300D02*
D03*
X596700D02*
D03*
X545900D02*
D03*
X495100D02*
D03*
X418900D02*
D03*
X317300D02*
D03*
X291900D02*
D03*
X241100D02*
D03*
X215700D02*
D03*
X190300D02*
D03*
X164900D02*
D03*
X25000Y457700D02*
D03*
X37900Y310800D02*
D03*
X63300D02*
D03*
X88700D02*
D03*
X114100D02*
D03*
X139500D02*
D03*
X266500D02*
D03*
X342700D02*
D03*
X368100D02*
D03*
X393500D02*
D03*
X444300D02*
D03*
X469700D02*
D03*
X520500D02*
D03*
X571300D02*
D03*
X596700D02*
D03*
X545900D02*
D03*
X495100D02*
D03*
X418900D02*
D03*
X317300D02*
D03*
X291900D02*
D03*
X241100D02*
D03*
X215700D02*
D03*
X190300D02*
D03*
X164900D02*
D03*
X495300Y344743D02*
D03*
X580300Y401250D02*
D03*
X261150Y495750D02*
D03*
X286550D02*
D03*
X311950D02*
D03*
X261150Y432058D02*
D03*
X286550D02*
D03*
X311950D02*
D03*
X177750Y406707D02*
D03*
Y492950D02*
D03*
D39*
X622100Y56800D02*
D03*
Y310800D02*
D03*
X520700Y344743D02*
D03*
X605700Y401250D02*
D03*
X337350Y495750D02*
D03*
Y432058D02*
D03*
D40*
X25000Y432300D02*
D03*
X177750Y432107D02*
D03*
Y467550D02*
D03*
D41*
X215700Y107600D02*
D03*
X241100D02*
D03*
X342700D02*
D03*
X393500D02*
D03*
X469700D02*
D03*
X571300D02*
D03*
X596700D02*
D03*
X545900D02*
D03*
X520500D02*
D03*
X495100D02*
D03*
X444300D02*
D03*
X418900D02*
D03*
X368100D02*
D03*
X317300D02*
D03*
X291900D02*
D03*
X266500D02*
D03*
X190300D02*
D03*
X164900D02*
D03*
X139500D02*
D03*
X114100D02*
D03*
X88700D02*
D03*
X63300D02*
D03*
X37900D02*
D03*
X215700Y260000D02*
D03*
X241100D02*
D03*
X342700D02*
D03*
X393500D02*
D03*
X469700D02*
D03*
X571300D02*
D03*
X596700D02*
D03*
X545900D02*
D03*
X520500D02*
D03*
X495100D02*
D03*
X444300D02*
D03*
X418900D02*
D03*
X368100D02*
D03*
X317300D02*
D03*
X291900D02*
D03*
X266500D02*
D03*
X190300D02*
D03*
X164900D02*
D03*
X139500D02*
D03*
X114100D02*
D03*
X88700D02*
D03*
X63300D02*
D03*
X37900D02*
D03*
D42*
X622100Y107600D02*
D03*
Y260000D02*
D03*
D43*
X445000Y413800D02*
D03*
X521200D02*
D03*
Y490000D02*
D03*
X445000D02*
D03*
D44*
X360000Y402500D02*
D03*
X215000Y462500D02*
D03*
X567500Y492500D02*
D03*
X565000Y377500D02*
D03*
X57500Y475000D02*
D03*
M02*
