G04*
G04 #@! TF.GenerationSoftware,Altium Limited,Altium Designer,20.1.12 (249)*
G04*
G04 Layer_Color=16711935*
%FSLAX44Y44*%
%MOMM*%
G71*
G04*
G04 #@! TF.SameCoordinates,28A8639E-1F06-4054-8E9C-96101E26D361*
G04*
G04*
G04 #@! TF.FilePolarity,Positive*
G04*
G01*
G75*
%ADD10C,0.2000*%
%ADD11C,0.1524*%
%ADD12C,0.1000*%
G36*
X202743Y428144D02*
X205742Y432974D01*
X199743D01*
X202743Y428144D01*
D02*
G37*
G36*
Y494749D02*
X205742Y499579D01*
X199743D01*
X202743Y494749D01*
D02*
G37*
D10*
X432300Y426500D02*
X457700D01*
Y401100D02*
Y426500D01*
X432300Y401100D02*
X457700D01*
X432300D02*
Y426500D01*
X508500D02*
X533900D01*
Y401100D02*
Y426500D01*
X508500Y401100D02*
X533900D01*
X508500D02*
Y426500D01*
Y502700D02*
X533900D01*
Y477300D02*
Y502700D01*
X508500Y477300D02*
X533900D01*
X508500D02*
Y502700D01*
X432300D02*
X457700D01*
Y477300D02*
Y502700D01*
X432300Y477300D02*
X457700D01*
X432300D02*
Y502700D01*
D11*
X121952Y500494D02*
G03*
X128048Y500494I3048J0D01*
G01*
X109506Y492874D02*
Y496684D01*
X99600D02*
X109506D01*
X99600Y492874D02*
Y496684D01*
Y492874D02*
X109506D01*
Y486270D02*
Y490080D01*
X99600D02*
X109506D01*
X99600Y486270D02*
Y490080D01*
Y486270D02*
X109506D01*
Y479920D02*
Y483730D01*
X99600D02*
X109506D01*
X99600Y479920D02*
Y483730D01*
Y479920D02*
X109506D01*
Y473316D02*
Y477126D01*
X99600D02*
X109506D01*
X99600Y473316D02*
Y477126D01*
Y473316D02*
X109506D01*
X140494D02*
Y477126D01*
Y473316D02*
X150400D01*
Y477126D01*
X140494D02*
X150400D01*
X140494Y479920D02*
Y483730D01*
Y479920D02*
X150400D01*
Y483730D01*
X140494D02*
X150400D01*
X140494Y486270D02*
Y490080D01*
Y486270D02*
X150400D01*
Y490080D01*
X140494D02*
X150400D01*
X140494Y492874D02*
Y496684D01*
Y492874D02*
X150400D01*
Y496684D01*
X140494D02*
X150400D01*
X109506Y469506D02*
X140494D01*
Y500494D01*
X128048D02*
X140494D01*
X121952D02*
X128048D01*
X109506D02*
X121952D01*
X109506Y469506D02*
Y500494D01*
D12*
X617300Y380008D02*
X642700D01*
Y354608D02*
Y380008D01*
X617300Y354608D02*
X642700D01*
X617300D02*
Y380008D01*
X594685Y354000D02*
Y370000D01*
X586685Y354000D02*
X594685D01*
X586685D02*
Y370000D01*
X594685D01*
X598300Y511700D02*
X623700D01*
Y486300D02*
Y511700D01*
X598300Y486300D02*
X623700D01*
X598300D02*
Y511700D01*
X457000Y23000D02*
X473000D01*
Y15000D02*
Y23000D01*
X457000Y15000D02*
X473000D01*
X457000D02*
Y23000D01*
X492300Y35700D02*
X517700D01*
Y10300D02*
Y35700D01*
X492300Y10300D02*
X517700D01*
X492300D02*
Y35700D01*
X457000Y27750D02*
X473000D01*
X457000D02*
Y35750D01*
X473000D01*
Y27750D02*
Y35750D01*
X406000Y17000D02*
Y33000D01*
X414000D01*
Y17000D02*
Y33000D01*
X406000Y17000D02*
X414000D01*
X438000D02*
X446000D01*
Y33000D01*
X438000D02*
X446000D01*
X438000Y17000D02*
Y33000D01*
X25200Y44100D02*
X634800D01*
Y69500D01*
X25200Y44100D02*
Y69500D01*
X634800D01*
X429000Y17000D02*
Y33000D01*
X421000Y17000D02*
X429000D01*
X421000D02*
Y33000D01*
X429000D01*
X552692Y360792D02*
X568692D01*
Y331792D02*
Y360792D01*
X552692Y331792D02*
X568692D01*
X552692D02*
Y360792D01*
Y351292D02*
X562192Y360792D01*
X605043Y433000D02*
Y449000D01*
X634043D01*
Y433000D02*
Y449000D01*
X605043Y433000D02*
X634043D01*
X605043Y442500D02*
X614543Y433000D01*
X12300Y419600D02*
Y470400D01*
X37700D01*
Y419600D02*
Y470400D01*
X12300Y419600D02*
X37700D01*
X637300Y95100D02*
Y120100D01*
X22700D02*
X637300D01*
X22700Y95100D02*
Y120100D01*
Y95100D02*
X637300D01*
X25200Y298100D02*
X634800D01*
Y323500D01*
X25200Y298100D02*
Y323500D01*
X634800D01*
X637300Y247500D02*
Y272500D01*
X22700D02*
X637300D01*
X22700Y247500D02*
Y272500D01*
Y247500D02*
X637300D01*
X482600Y332043D02*
X533400D01*
X482600D02*
Y357443D01*
X533400D01*
Y332043D02*
Y357443D01*
X567600Y388550D02*
X618400D01*
X567600D02*
Y413950D01*
X618400D01*
Y388550D02*
Y413950D01*
X567250Y442243D02*
X576750Y432742D01*
X567250D02*
X596250D01*
Y448742D01*
X567250D02*
X596250D01*
X567250Y432742D02*
Y448742D01*
X269250Y456000D02*
Y472000D01*
X277250D01*
Y456000D02*
Y472000D01*
X269250Y456000D02*
X277250D01*
X321000D02*
Y472000D01*
X329000D01*
Y456000D02*
Y472000D01*
X321000Y456000D02*
X329000D01*
X248450Y483050D02*
X350050D01*
X248450Y508450D02*
X350050D01*
Y483050D02*
Y508450D01*
X248450Y483050D02*
Y508450D01*
Y419358D02*
X350050D01*
X248450Y444758D02*
X350050D01*
Y419358D02*
Y444758D01*
X248450Y419358D02*
Y444758D01*
X140159Y427500D02*
Y443500D01*
X148159D01*
Y427500D02*
Y443500D01*
X140159Y427500D02*
X148159D01*
X80174Y424750D02*
Y440750D01*
X88174D01*
Y424750D02*
Y440750D01*
X80174Y424750D02*
X88174D01*
X106167Y446389D02*
X122167D01*
Y417389D02*
Y446389D01*
X106167Y417389D02*
X122167D01*
X106167D02*
Y446389D01*
Y436889D02*
X115667Y446389D01*
X190450Y394007D02*
Y444807D01*
X165050Y394007D02*
X190450D01*
X165050D02*
Y444807D01*
X190450D01*
X198750Y393181D02*
Y409181D01*
X206750D01*
Y393181D02*
Y409181D01*
X198750Y393181D02*
X206750D01*
X198743Y422474D02*
Y438474D01*
X206742D01*
Y422474D02*
Y438474D01*
X198743Y422474D02*
X206742D01*
X207043Y459786D02*
Y475786D01*
X199043Y459786D02*
X207043D01*
X199043D02*
Y475786D01*
X207043D01*
X198743Y489079D02*
Y505079D01*
X206742D01*
Y489079D02*
Y505079D01*
X198743Y489079D02*
X206742D01*
X165050Y454850D02*
Y505650D01*
X190450D01*
Y454850D02*
Y505650D01*
X165050Y454850D02*
X190450D01*
X71858Y486807D02*
X87858D01*
Y478807D02*
Y486807D01*
X71858Y478807D02*
X87858D01*
X71858D02*
Y486807D01*
Y502250D02*
X87858D01*
Y494250D02*
Y502250D01*
X71858Y494250D02*
X87858D01*
X71858D02*
Y502250D01*
X71608Y471365D02*
X87608D01*
Y463365D02*
Y471365D01*
X71608Y463365D02*
X87608D01*
X71608D02*
Y471365D01*
X585750Y469035D02*
Y485035D01*
X577750Y469035D02*
X585750D01*
X577750D02*
Y485035D01*
X585750D01*
X626000Y130343D02*
Y146343D01*
X618000Y130343D02*
X626000D01*
X618000D02*
Y146343D01*
X626000D01*
X475500Y455750D02*
X491500D01*
Y447750D02*
Y455750D01*
X475500Y447750D02*
X491500D01*
X475500D02*
Y455750D01*
M02*
