G04*
G04 #@! TF.GenerationSoftware,Altium Limited,Altium Designer,20.1.12 (249)*
G04*
G04 Layer_Color=8421504*
%FSLAX44Y44*%
%MOMM*%
G71*
G04*
G04 #@! TF.SameCoordinates,28A8639E-1F06-4054-8E9C-96101E26D361*
G04*
G04*
G04 #@! TF.FilePolarity,Positive*
G04*
G01*
G75*
%ADD13R,0.9400X0.8300*%
%ADD14R,0.8300X0.9400*%
%ADD15R,1.0500X0.6000*%
%ADD16R,0.6000X1.0500*%
%ADD17R,1.3970X0.4318*%
%ADD18R,0.6000X1.2000*%
%ADD19R,0.8000X0.8000*%
D13*
X590685Y368600D02*
D03*
Y355400D02*
D03*
X410000Y18400D02*
D03*
Y31600D02*
D03*
X442000D02*
D03*
Y18400D02*
D03*
X425000Y31600D02*
D03*
Y18400D02*
D03*
X273250Y457400D02*
D03*
Y470600D02*
D03*
X325000Y457400D02*
D03*
Y470600D02*
D03*
X144159Y428900D02*
D03*
Y442100D02*
D03*
X84174Y426150D02*
D03*
Y439350D02*
D03*
X202750Y394581D02*
D03*
Y407781D02*
D03*
X203043Y474387D02*
D03*
Y461186D02*
D03*
X581750Y483635D02*
D03*
Y470435D02*
D03*
X622000Y144943D02*
D03*
Y131742D02*
D03*
D14*
X458400Y19000D02*
D03*
X471600D02*
D03*
Y31750D02*
D03*
X458400D02*
D03*
X73258Y482807D02*
D03*
X86459D02*
D03*
X73258Y498250D02*
D03*
X86459D02*
D03*
X73008Y467365D02*
D03*
X86208D02*
D03*
X476900Y451750D02*
D03*
X490100D02*
D03*
D15*
X547692Y355792D02*
D03*
Y346292D02*
D03*
Y336792D02*
D03*
X573692D02*
D03*
Y355792D02*
D03*
X101167Y441389D02*
D03*
Y431889D02*
D03*
Y422389D02*
D03*
X127167D02*
D03*
Y441389D02*
D03*
D16*
X610043Y428000D02*
D03*
X619543D02*
D03*
X629043D02*
D03*
Y454000D02*
D03*
X610043D02*
D03*
D17*
X102902Y494750D02*
D03*
Y488250D02*
D03*
Y481750D02*
D03*
Y475250D02*
D03*
X147098D02*
D03*
Y481750D02*
D03*
Y488250D02*
D03*
Y494750D02*
D03*
D18*
X572250Y453243D02*
D03*
X581750D02*
D03*
X591250D02*
D03*
Y428243D02*
D03*
X581750D02*
D03*
X572250D02*
D03*
D19*
X202743Y438474D02*
D03*
Y422474D02*
D03*
Y505079D02*
D03*
Y489079D02*
D03*
M02*
