G04*
G04 #@! TF.GenerationSoftware,Altium Limited,Altium Designer,20.1.12 (249)*
G04*
G04 Layer_Color=65535*
%FSLAX44Y44*%
%MOMM*%
G71*
G04*
G04 #@! TF.SameCoordinates,28A8639E-1F06-4054-8E9C-96101E26D361*
G04*
G04*
G04 #@! TF.FilePolarity,Positive*
G04*
G01*
G75*
%ADD10C,0.2000*%
%ADD11C,0.1524*%
%ADD12C,0.1000*%
D10*
X644200Y353858D02*
Y380758D01*
X615800D02*
X644200D01*
X615800Y353858D02*
Y380758D01*
Y353858D02*
X644200D01*
X625200Y485550D02*
Y512450D01*
X596800D02*
X625200D01*
X596800Y485550D02*
Y512450D01*
Y485550D02*
X625200D01*
X519200Y9550D02*
Y36450D01*
X490800D02*
X519200D01*
X490800Y9550D02*
Y36450D01*
Y9550D02*
X519200D01*
X23700Y43350D02*
Y70250D01*
Y43350D02*
X636300D01*
Y70250D01*
X23700D02*
X636300D01*
X556442Y360792D02*
X564942D01*
Y331792D02*
Y360792D01*
X556442Y331792D02*
X564942D01*
X556442D02*
Y360792D01*
X542442Y361292D02*
X552942D01*
X605043Y436750D02*
Y445250D01*
X634043D01*
Y436750D02*
Y445250D01*
X605043Y436750D02*
X634043D01*
X604543Y422750D02*
Y433250D01*
X11550Y471900D02*
X38450D01*
X11550Y418100D02*
Y471900D01*
Y418100D02*
X38450D01*
Y471900D01*
X638550Y94100D02*
Y121100D01*
X21450D02*
X638550D01*
X21450Y94100D02*
Y121100D01*
Y94100D02*
X638550D01*
X23700Y297350D02*
Y324250D01*
Y297350D02*
X636300D01*
Y324250D01*
X23700D02*
X636300D01*
X638550Y246500D02*
Y273500D01*
X21450D02*
X638550D01*
X21450Y246500D02*
Y273500D01*
Y246500D02*
X638550D01*
X481100Y331292D02*
Y358192D01*
Y331292D02*
X534900D01*
Y358192D01*
X481100D02*
X534900D01*
X566100Y387800D02*
Y414700D01*
Y387800D02*
X619900D01*
Y414700D01*
X566100D02*
X619900D01*
X565750Y422243D02*
Y434243D01*
X567250Y437743D02*
X596250D01*
Y443743D01*
X567250D02*
X596250D01*
X567250Y437743D02*
Y443743D01*
X246950Y482300D02*
Y509200D01*
Y482300D02*
X351550D01*
Y509200D01*
X246950D02*
X351550D01*
X246950Y418607D02*
Y445508D01*
Y418607D02*
X351550D01*
Y445508D01*
X246950D02*
X351550D01*
X109917Y446389D02*
X118417D01*
Y417389D02*
Y446389D01*
X109917Y417389D02*
X118417D01*
X109917D02*
Y446389D01*
X95917Y446889D02*
X106417D01*
X164300Y392507D02*
X191200D01*
Y446308D01*
X164300D02*
X191200D01*
X164300Y392507D02*
Y446308D01*
Y507150D02*
X191200D01*
X164300Y453350D02*
Y507150D01*
Y453350D02*
X191200D01*
Y507150D01*
D11*
X108236Y468236D02*
X141764D01*
X108236Y501764D02*
X141764D01*
D12*
X432300Y426500D02*
X457700D01*
Y401100D02*
Y426500D01*
X432300Y401100D02*
X457700D01*
X432300D02*
Y426500D01*
X508500D02*
X533900D01*
Y401100D02*
Y426500D01*
X508500Y401100D02*
X533900D01*
X508500D02*
Y426500D01*
Y502700D02*
X533900D01*
Y477300D02*
Y502700D01*
X508500Y477300D02*
X533900D01*
X508500D02*
Y502700D01*
X432300D02*
X457700D01*
Y477300D02*
Y502700D01*
X432300Y477300D02*
X457700D01*
X432300D02*
Y502700D01*
X621188Y470500D02*
Y473832D01*
Y472166D01*
X626186D01*
Y476331D02*
Y477998D01*
X625353Y478831D01*
X623687D01*
X622854Y477998D01*
Y476331D01*
X623687Y475498D01*
X625353D01*
X626186Y476331D01*
X634584Y470500D02*
X631252D01*
X629585Y472166D01*
X631252Y473832D01*
X634584D01*
X632085D01*
Y470500D01*
X636250Y477164D02*
Y477998D01*
X635417Y478831D01*
X631252D01*
Y476331D01*
X632085Y475498D01*
X633751D01*
X634584Y476331D01*
Y478831D01*
X630419Y483829D02*
X629585Y482996D01*
Y481330D01*
X630419Y480497D01*
X633751D01*
X634584Y481330D01*
Y482996D01*
X633751Y483829D01*
X634584Y485495D02*
Y487161D01*
Y486328D01*
X629585D01*
Y485495D01*
X634584Y494659D02*
X629585D01*
Y497158D01*
X630419Y497991D01*
X632085D01*
X632918Y497158D01*
Y494659D01*
X631252Y500490D02*
Y502156D01*
X632085Y502989D01*
X634584D01*
Y500490D01*
X633751Y499657D01*
X632918Y500490D01*
Y502989D01*
X629585Y507988D02*
X634584D01*
Y505489D01*
X633751Y504656D01*
X632085D01*
X631252Y505489D01*
Y507988D01*
X441000Y366064D02*
Y371063D01*
X443499D01*
X444332Y370229D01*
Y368563D01*
X443499Y367730D01*
X441000D01*
X445998Y371063D02*
X447664D01*
X446831D01*
Y366064D01*
X445998D01*
X447664D01*
X452663Y371063D02*
X450997D01*
X450164Y370229D01*
Y366897D01*
X450997Y366064D01*
X452663D01*
X453496Y366897D01*
Y370229D01*
X452663Y371063D01*
X455162Y370229D02*
X455995Y371063D01*
X457661D01*
X458494Y370229D01*
Y369396D01*
X457661Y368563D01*
X456828D01*
X457661D01*
X458494Y367730D01*
Y366897D01*
X457661Y366064D01*
X455995D01*
X455162Y366897D01*
X460160Y370229D02*
X460993Y371063D01*
X462660D01*
X463493Y370229D01*
Y366897D01*
X462660Y366064D01*
X460993D01*
X460160Y366897D01*
Y370229D01*
X444332Y361831D02*
X443499Y362664D01*
X441833D01*
X441000Y361831D01*
Y358499D01*
X441833Y357666D01*
X443499D01*
X444332Y358499D01*
X446831Y361831D02*
Y360998D01*
X445998D01*
X447664D01*
X446831D01*
Y358499D01*
X447664Y357666D01*
X450164Y360998D02*
Y357666D01*
Y359332D01*
X450997Y360165D01*
X451830Y360998D01*
X452663D01*
X455162Y357666D02*
X456828D01*
X455995D01*
Y362664D01*
X455162D01*
X467658Y361831D02*
X466825Y362664D01*
X465159D01*
X464326Y361831D01*
Y360998D01*
X465159Y360165D01*
X466825D01*
X467658Y359332D01*
Y358499D01*
X466825Y357666D01*
X465159D01*
X464326Y358499D01*
X469324Y357666D02*
X470990D01*
X470157D01*
Y360998D01*
X469324D01*
X475155Y356000D02*
X475989D01*
X476822Y356833D01*
Y360998D01*
X474323D01*
X473489Y360165D01*
Y358499D01*
X474323Y357666D01*
X476822D01*
X611000Y341833D02*
Y346831D01*
X612666Y345165D01*
X614332Y346831D01*
Y341833D01*
X615998Y345165D02*
Y342666D01*
X616831Y341833D01*
X619331D01*
Y345165D01*
X620997D02*
X624329Y341833D01*
X622663Y343499D01*
X624329Y345165D01*
X620997Y341833D01*
X625995Y341000D02*
X629327D01*
X631827Y341833D02*
X633493D01*
X634326Y342666D01*
Y344332D01*
X633493Y345165D01*
X631827D01*
X630993Y344332D01*
Y342666D01*
X631827Y341833D01*
X635992Y345165D02*
Y342666D01*
X636825Y341833D01*
X639324D01*
Y345165D01*
X641823Y345998D02*
Y345165D01*
X640990D01*
X642656D01*
X641823D01*
Y342666D01*
X642656Y341833D01*
X528500Y12666D02*
Y15998D01*
X530166Y17665D01*
X531832Y15998D01*
Y12666D01*
Y15165D01*
X528500D01*
X533498Y17665D02*
Y12666D01*
X535998D01*
X536831Y13499D01*
Y16831D01*
X535998Y17665D01*
X533498D01*
X541829Y16831D02*
X540996Y17665D01*
X539330D01*
X538497Y16831D01*
Y13499D01*
X539330Y12666D01*
X540996D01*
X541829Y13499D01*
X548493Y17665D02*
X550160D01*
X549327D01*
Y12666D01*
X548493D01*
X550160D01*
X552659D02*
Y15998D01*
X555158D01*
X555991Y15165D01*
Y12666D01*
X557657Y11000D02*
Y15998D01*
X560156D01*
X560989Y15165D01*
Y13499D01*
X560156Y12666D01*
X557657D01*
X562655Y15998D02*
Y13499D01*
X563489Y12666D01*
X565988D01*
Y15998D01*
X568487Y16831D02*
Y15998D01*
X567654D01*
X569320D01*
X568487D01*
Y13499D01*
X569320Y12666D01*
X483500Y281000D02*
Y285998D01*
X485999D01*
X486832Y285165D01*
Y283499D01*
X485999Y282666D01*
X483500D01*
X488498Y285998D02*
X490164D01*
X489331D01*
Y281000D01*
X488498D01*
X490164D01*
X495163Y285998D02*
X493497D01*
X492664Y285165D01*
Y281833D01*
X493497Y281000D01*
X495163D01*
X495996Y281833D01*
Y285165D01*
X495163Y285998D01*
X497662Y285165D02*
X498495Y285998D01*
X500161D01*
X500994Y285165D01*
Y284332D01*
X500161Y283499D01*
X499328D01*
X500161D01*
X500994Y282666D01*
Y281833D01*
X500161Y281000D01*
X498495D01*
X497662Y281833D01*
X502660Y285165D02*
X503493Y285998D01*
X505160D01*
X505993Y285165D01*
Y281833D01*
X505160Y281000D01*
X503493D01*
X502660Y281833D01*
Y285165D01*
X627002Y80332D02*
Y77000D01*
X629501D01*
X628668Y78666D01*
Y79499D01*
X629501Y80332D01*
X631167D01*
X632000Y79499D01*
Y77833D01*
X631167Y77000D01*
X627002Y81998D02*
X630334D01*
X632000Y83665D01*
X630334Y85331D01*
X627002D01*
X629835Y283332D02*
X629002Y282499D01*
Y280833D01*
X629835Y280000D01*
X633167D01*
X634000Y280833D01*
Y282499D01*
X633167Y283332D01*
X631501D01*
Y281666D01*
X634000Y284998D02*
X629002D01*
X634000Y288331D01*
X629002D01*
Y289997D02*
X634000D01*
Y292496D01*
X633167Y293329D01*
X629835D01*
X629002Y292496D01*
Y289997D01*
X624002Y398332D02*
Y395000D01*
X626501D01*
Y396666D01*
Y395000D01*
X629000D01*
X624835Y403331D02*
X624002Y402497D01*
Y400831D01*
X624835Y399998D01*
X625668D01*
X626501Y400831D01*
Y402497D01*
X627334Y403331D01*
X628167D01*
X629000Y402497D01*
Y400831D01*
X628167Y399998D01*
X624002Y404997D02*
X629000D01*
X627334D01*
X624002Y408329D01*
X626501Y405830D01*
X629000Y408329D01*
X215000Y425165D02*
X215833Y425998D01*
X217499D01*
X218332Y425165D01*
Y424332D01*
X217499Y423499D01*
X216666D01*
X217499D01*
X218332Y422666D01*
Y421833D01*
X217499Y421000D01*
X215833D01*
X215000Y421833D01*
X219998Y425998D02*
Y422666D01*
X221665Y421000D01*
X223331Y422666D01*
Y425998D01*
X224997Y425165D02*
X225830Y425998D01*
X227496D01*
X228329Y425165D01*
Y424332D01*
X227496Y423499D01*
X226663D01*
X227496D01*
X228329Y422666D01*
Y421833D01*
X227496Y421000D01*
X225830D01*
X224997Y421833D01*
X217332Y490998D02*
X214000D01*
Y488499D01*
X215666Y489332D01*
X216499D01*
X217332Y488499D01*
Y486833D01*
X216499Y486000D01*
X214833D01*
X214000Y486833D01*
X218998Y490998D02*
Y487666D01*
X220665Y486000D01*
X222331Y487666D01*
Y490998D01*
X517332Y468998D02*
X514000D01*
Y466499D01*
X515666Y467332D01*
X516499D01*
X517332Y466499D01*
Y464833D01*
X516499Y464000D01*
X514833D01*
X514000Y464833D01*
X518998Y468998D02*
Y465666D01*
X520664Y464000D01*
X522331Y465666D01*
Y468998D01*
X515332Y394664D02*
X512000D01*
Y392165D01*
X513666D01*
X512000D01*
Y389666D01*
X516998Y392998D02*
Y389666D01*
Y391332D01*
X517831Y392165D01*
X518665Y392998D01*
X519497D01*
X524496Y389666D02*
X522830D01*
X521997Y390499D01*
Y392165D01*
X522830Y392998D01*
X524496D01*
X525329Y392165D01*
Y391332D01*
X521997D01*
X530327Y388000D02*
Y392998D01*
X527828D01*
X526995Y392165D01*
Y390499D01*
X527828Y389666D01*
X530327D01*
X441332Y394165D02*
X440499Y394998D01*
X438833D01*
X438000Y394165D01*
Y390833D01*
X438833Y390000D01*
X440499D01*
X441332Y390833D01*
Y392499D01*
X439666D01*
X442998Y390000D02*
Y394998D01*
X446331Y390000D01*
Y394998D01*
X447997D02*
Y390000D01*
X450496D01*
X451329Y390833D01*
Y394165D01*
X450496Y394998D01*
X447997D01*
X318000Y517165D02*
X318833Y517998D01*
X320499D01*
X321332Y517165D01*
Y516332D01*
X320499Y515499D01*
X319666D01*
X320499D01*
X321332Y514666D01*
Y513833D01*
X320499Y513000D01*
X318833D01*
X318000Y513833D01*
X322998Y517998D02*
Y514666D01*
X324664Y513000D01*
X326331Y514666D01*
Y517998D01*
X327997Y517165D02*
X328830Y517998D01*
X330496D01*
X331329Y517165D01*
Y516332D01*
X330496Y515499D01*
X329663D01*
X330496D01*
X331329Y514666D01*
Y513833D01*
X330496Y513000D01*
X328830D01*
X327997Y513833D01*
X270332Y517998D02*
X267000D01*
Y515499D01*
X268666Y516332D01*
X269499D01*
X270332Y515499D01*
Y513833D01*
X269499Y513000D01*
X267833D01*
X267000Y513833D01*
X271998Y517998D02*
Y514666D01*
X273664Y513000D01*
X275331Y514666D01*
Y517998D01*
X295332Y410165D02*
X294499Y410998D01*
X292833D01*
X292000Y410165D01*
Y406833D01*
X292833Y406000D01*
X294499D01*
X295332Y406833D01*
Y408499D01*
X293666D01*
X296998Y406000D02*
Y410998D01*
X300331Y406000D01*
Y410998D01*
X301997D02*
Y406000D01*
X304496D01*
X305329Y406833D01*
Y410165D01*
X304496Y410998D01*
X301997D01*
X130000Y391165D02*
X130833Y391998D01*
X132499D01*
X133332Y391165D01*
Y390332D01*
X132499Y389499D01*
X131666D01*
X132499D01*
X133332Y388666D01*
Y387833D01*
X132499Y387000D01*
X130833D01*
X130000Y387833D01*
X134998Y391998D02*
Y388666D01*
X136664Y387000D01*
X138331Y388666D01*
Y391998D01*
X139997Y391165D02*
X140830Y391998D01*
X142496D01*
X143329Y391165D01*
Y390332D01*
X142496Y389499D01*
X141663D01*
X142496D01*
X143329Y388666D01*
Y387833D01*
X142496Y387000D01*
X140830D01*
X139997Y387833D01*
X153326Y391998D02*
X149993D01*
Y387000D01*
X153326D01*
X149993Y389499D02*
X151660D01*
X154992Y387000D02*
Y391998D01*
X158324Y387000D01*
Y391998D01*
X137332Y459998D02*
X134000D01*
Y457499D01*
X135666Y458332D01*
X136499D01*
X137332Y457499D01*
Y455833D01*
X136499Y455000D01*
X134833D01*
X134000Y455833D01*
X138998Y459998D02*
Y456666D01*
X140665Y455000D01*
X142331Y456666D01*
Y459998D01*
X152327D02*
X148995D01*
Y455000D01*
X152327D01*
X148995Y457499D02*
X150661D01*
X153993Y455000D02*
Y459998D01*
X157326Y455000D01*
Y459998D01*
X6335Y478000D02*
Y479666D01*
Y478833D01*
X11334D01*
Y478000D01*
Y479666D01*
Y482165D02*
X8002D01*
Y484664D01*
X8835Y485498D01*
X11334D01*
X13000Y487164D02*
X8002D01*
Y489663D01*
X8835Y490496D01*
X10501D01*
X11334Y489663D01*
Y487164D01*
X8002Y492162D02*
X10501D01*
X11334Y492995D01*
Y495494D01*
X8002D01*
X7169Y497994D02*
X8002D01*
Y497160D01*
Y498826D01*
Y497994D01*
X10501D01*
X11334Y498826D01*
X6835Y400332D02*
X6002Y399499D01*
Y397833D01*
X6835Y397000D01*
X10167D01*
X11000Y397833D01*
Y399499D01*
X10167Y400332D01*
X8501D01*
Y398666D01*
X11000Y401998D02*
X6002D01*
X11000Y405331D01*
X6002D01*
Y406997D02*
X11000D01*
Y409496D01*
X10167Y410329D01*
X6835D01*
X6002Y409496D01*
Y406997D01*
X42768Y39800D02*
X46100D01*
X42768Y36468D01*
Y35635D01*
X43601Y34802D01*
X45267D01*
X46100Y35635D01*
X38602Y39800D02*
Y34802D01*
X41102Y37301D01*
X37769D01*
X399800Y39800D02*
X398134D01*
X398967D01*
Y34802D01*
X399800Y35635D01*
X395635D02*
X394802Y34802D01*
X393135D01*
X392302Y35635D01*
Y38967D01*
X393135Y39800D01*
X394802D01*
X395635Y38967D01*
Y35635D01*
X623300Y39800D02*
X621634D01*
X622467D01*
Y34802D01*
X623300Y35635D01*
X400300Y90600D02*
X398634D01*
X399467D01*
Y85602D01*
X400300Y86435D01*
X396135D02*
X395302Y85602D01*
X393635D01*
X392802Y86435D01*
Y89767D01*
X393635Y90600D01*
X395302D01*
X396135Y89767D01*
Y86435D01*
X624000Y90600D02*
X622334D01*
X623167D01*
Y85602D01*
X624000Y86435D01*
X43268Y90600D02*
X46600D01*
X43268Y87268D01*
Y86435D01*
X44101Y85602D01*
X45767D01*
X46600Y86435D01*
X39102Y90600D02*
Y85602D01*
X41602Y88101D01*
X38269D01*
X42768Y293800D02*
X46100D01*
X42768Y290468D01*
Y289635D01*
X43601Y288802D01*
X45267D01*
X46100Y289635D01*
X38602Y293800D02*
Y288802D01*
X41102Y291301D01*
X37769D01*
X399800Y293800D02*
X398134D01*
X398967D01*
Y288802D01*
X399800Y289635D01*
X395635D02*
X394802Y288802D01*
X393135D01*
X392302Y289635D01*
Y292967D01*
X393135Y293800D01*
X394802D01*
X395635Y292967D01*
Y289635D01*
X623300Y293800D02*
X621634D01*
X622467D01*
Y288802D01*
X623300Y289635D01*
X400300Y243000D02*
X398634D01*
X399467D01*
Y238002D01*
X400300Y238835D01*
X396135D02*
X395302Y238002D01*
X393635D01*
X392802Y238835D01*
Y242167D01*
X393635Y243000D01*
X395302D01*
X396135Y242167D01*
Y238835D01*
X624000Y243000D02*
X622334D01*
X623167D01*
Y238002D01*
X624000Y238835D01*
X43268Y243000D02*
X46600D01*
X43268Y239668D01*
Y238835D01*
X44101Y238002D01*
X45767D01*
X46600Y238835D01*
X39102Y243000D02*
Y238002D01*
X41602Y240501D01*
X38269D01*
X203600Y447189D02*
Y451474D01*
X205742Y449332D02*
X201458D01*
X203600Y513794D02*
Y518079D01*
X205742Y515937D02*
X201458D01*
X635835Y387501D02*
Y392499D01*
X638334D01*
X639167Y391666D01*
Y390000D01*
X638334Y389167D01*
X635835D01*
X640833Y392499D02*
X644165D01*
Y391666D01*
X640833Y388334D01*
Y387501D01*
X484749Y27835D02*
X479751D01*
Y30334D01*
X480584Y31167D01*
X482250D01*
X483083Y30334D01*
Y27835D01*
Y29501D02*
X484749Y31167D01*
X479751Y36165D02*
X480584Y34499D01*
X482250Y32833D01*
X483916D01*
X484749Y33666D01*
Y35332D01*
X483916Y36165D01*
X483083D01*
X482250Y35332D01*
Y32833D01*
X405335Y4751D02*
Y9749D01*
X407834D01*
X408667Y8916D01*
Y7250D01*
X407834Y6417D01*
X405335D01*
X407001D02*
X408667Y4751D01*
X413665Y9749D02*
X410333D01*
Y7250D01*
X411999Y8083D01*
X412832D01*
X413665Y7250D01*
Y5584D01*
X412832Y4751D01*
X411166D01*
X410333Y5584D01*
X465335Y4001D02*
Y8999D01*
X467834D01*
X468667Y8166D01*
Y6500D01*
X467834Y5667D01*
X465335D01*
X467001D02*
X468667Y4001D01*
X472832D02*
Y8999D01*
X470333Y6500D01*
X473665D01*
X438335Y4242D02*
Y9240D01*
X440834D01*
X441667Y8407D01*
Y6741D01*
X440834Y5908D01*
X438335D01*
X440001D02*
X441667Y4242D01*
X443333Y8407D02*
X444166Y9240D01*
X445832D01*
X446665Y8407D01*
Y7574D01*
X445832Y6741D01*
X444999D01*
X445832D01*
X446665Y5908D01*
Y5075D01*
X445832Y4242D01*
X444166D01*
X443333Y5075D01*
X578752Y508251D02*
Y513249D01*
X581251D01*
X582084Y512416D01*
Y510750D01*
X581251Y509917D01*
X578752D01*
X583750Y508251D02*
X585416D01*
X584584D01*
Y513249D01*
X583750Y512416D01*
X587916D02*
X588749Y513249D01*
X590415D01*
X591248Y512416D01*
Y509084D01*
X590415Y508251D01*
X588749D01*
X587916Y509084D01*
Y512416D01*
X527842Y23501D02*
Y28499D01*
X530341D01*
X531175Y27666D01*
Y26000D01*
X530341Y25167D01*
X527842D01*
X536173Y28499D02*
X534507Y27666D01*
X532841Y26000D01*
Y24334D01*
X533674Y23501D01*
X535340D01*
X536173Y24334D01*
Y25167D01*
X535340Y26000D01*
X532841D01*
X603300Y473114D02*
X604966D01*
X604133D01*
Y468116D01*
X603300D01*
X604966D01*
X610798Y472281D02*
X609964Y473114D01*
X608298D01*
X607465Y472281D01*
Y468949D01*
X608298Y468116D01*
X609964D01*
X610798Y468949D01*
X612464Y472281D02*
X613297Y473114D01*
X614963D01*
X615796Y472281D01*
Y471448D01*
X614963Y470615D01*
X614130D01*
X614963D01*
X615796Y469782D01*
Y468949D01*
X614963Y468116D01*
X613297D01*
X612464Y468949D01*
X540673Y374504D02*
X542340D01*
X541507D01*
Y369506D01*
X540673D01*
X542340D01*
X548171Y373671D02*
X547338Y374504D01*
X545672D01*
X544839Y373671D01*
Y370339D01*
X545672Y369506D01*
X547338D01*
X548171Y370339D01*
X553169Y369506D02*
X549837D01*
X553169Y372838D01*
Y373671D01*
X552336Y374504D01*
X550670D01*
X549837Y373671D01*
X587769Y381399D02*
X586936Y382232D01*
X585270D01*
X584437Y381399D01*
Y378066D01*
X585270Y377233D01*
X586936D01*
X587769Y378066D01*
X589435Y377233D02*
X591101D01*
X590268D01*
Y382232D01*
X589435Y381399D01*
X596933Y377233D02*
X593601D01*
X596933Y380565D01*
Y381399D01*
X596100Y382232D01*
X594434D01*
X593601Y381399D01*
X423110Y7657D02*
X422277Y8490D01*
X420611D01*
X419778Y7657D01*
Y4325D01*
X420611Y3492D01*
X422277D01*
X423110Y4325D01*
X424776Y3492D02*
X426442D01*
X425609D01*
Y8490D01*
X424776Y7657D01*
X428941Y3492D02*
X430607D01*
X429774D01*
Y8490D01*
X428941Y7657D01*
X415167Y416499D02*
X413501D01*
X414334D01*
Y412334D01*
X413501Y411501D01*
X412668D01*
X411835Y412334D01*
X420165Y416499D02*
X418499Y415666D01*
X416833Y414000D01*
Y412334D01*
X417666Y411501D01*
X419332D01*
X420165Y412334D01*
Y413167D01*
X419332Y414000D01*
X416833D01*
X496167Y499499D02*
X494501D01*
X495334D01*
Y495334D01*
X494501Y494501D01*
X493668D01*
X492835Y495334D01*
X501165Y499499D02*
X497833D01*
Y497000D01*
X499499Y497833D01*
X500332D01*
X501165Y497000D01*
Y495334D01*
X500332Y494501D01*
X498666D01*
X497833Y495334D01*
X495167Y415499D02*
X493501D01*
X494334D01*
Y411334D01*
X493501Y410501D01*
X492668D01*
X491835Y411334D01*
X499332Y410501D02*
Y415499D01*
X496833Y413000D01*
X500165D01*
X415167Y504499D02*
X413501D01*
X414334D01*
Y500334D01*
X413501Y499501D01*
X412668D01*
X411835Y500334D01*
X416833Y503666D02*
X417666Y504499D01*
X419332D01*
X420165Y503666D01*
Y502833D01*
X419332Y502000D01*
X418499D01*
X419332D01*
X420165Y501167D01*
Y500334D01*
X419332Y499501D01*
X417666D01*
X416833Y500334D01*
X216835Y399501D02*
Y404499D01*
X219334D01*
X220167Y403666D01*
Y402000D01*
X219334Y401167D01*
X216835D01*
X218501D02*
X220167Y399501D01*
X225165D02*
X221833D01*
X225165Y402833D01*
Y403666D01*
X224332Y404499D01*
X222666D01*
X221833Y403666D01*
X217668Y468501D02*
Y473499D01*
X220167D01*
X221000Y472666D01*
Y471000D01*
X220167Y470167D01*
X217668D01*
X219334D02*
X221000Y468501D01*
X222666D02*
X224332D01*
X223499D01*
Y473499D01*
X222666Y472666D01*
X544752Y398501D02*
Y403499D01*
X547251D01*
X548084Y402666D01*
Y401000D01*
X547251Y400167D01*
X544752D01*
X549750Y398501D02*
X551417D01*
X550583D01*
Y403499D01*
X549750Y402666D01*
X556415Y398501D02*
Y403499D01*
X553916Y401000D01*
X557248D01*
X458752Y339501D02*
Y344499D01*
X461251D01*
X462084Y343666D01*
Y342000D01*
X461251Y341167D01*
X458752D01*
X463750Y339501D02*
X465416D01*
X464583D01*
Y344499D01*
X463750Y343666D01*
X467916D02*
X468749Y344499D01*
X470415D01*
X471248Y343666D01*
Y342833D01*
X470415Y342000D01*
X469582D01*
X470415D01*
X471248Y341167D01*
Y340334D01*
X470415Y339501D01*
X468749D01*
X467916Y340334D01*
X14499Y52835D02*
X9501D01*
Y55334D01*
X10334Y56167D01*
X12000D01*
X12833Y55334D01*
Y52835D01*
X13666Y57833D02*
X14499Y58666D01*
Y60332D01*
X13666Y61165D01*
X10334D01*
X9501Y60332D01*
Y58666D01*
X10334Y57833D01*
X11167D01*
X12000Y58666D01*
Y61165D01*
X16499Y307835D02*
X11501D01*
Y310334D01*
X12334Y311167D01*
X14000D01*
X14833Y310334D01*
Y307835D01*
X12334Y312833D02*
X11501Y313666D01*
Y315332D01*
X12334Y316165D01*
X13167D01*
X14000Y315332D01*
X14833Y316165D01*
X15666D01*
X16499Y315332D01*
Y313666D01*
X15666Y312833D01*
X14833D01*
X14000Y313666D01*
X13167Y312833D01*
X12334D01*
X14000Y313666D02*
Y315332D01*
X363835Y430501D02*
Y435499D01*
X366334D01*
X367167Y434666D01*
Y433000D01*
X366334Y432167D01*
X363835D01*
X372165Y435499D02*
X368833D01*
Y433000D01*
X370499Y433833D01*
X371332D01*
X372165Y433000D01*
Y431334D01*
X371332Y430501D01*
X369666D01*
X368833Y431334D01*
X361835Y492501D02*
Y497499D01*
X364334D01*
X365167Y496666D01*
Y495000D01*
X364334Y494167D01*
X361835D01*
X369332Y492501D02*
Y497499D01*
X366833Y495000D01*
X370165D01*
X145835Y510501D02*
Y515499D01*
X148334D01*
X149167Y514666D01*
Y513000D01*
X148334Y512167D01*
X145835D01*
X150833Y514666D02*
X151666Y515499D01*
X153332D01*
X154165Y514666D01*
Y513833D01*
X153332Y513000D01*
X152499D01*
X153332D01*
X154165Y512167D01*
Y511334D01*
X153332Y510501D01*
X151666D01*
X150833Y511334D01*
X171835Y377501D02*
Y382499D01*
X174334D01*
X175167Y381666D01*
Y380000D01*
X174334Y379167D01*
X171835D01*
X180165Y377501D02*
X176833D01*
X180165Y380833D01*
Y381666D01*
X179332Y382499D01*
X177666D01*
X176833Y381666D01*
X45668Y415501D02*
Y420499D01*
X48167D01*
X49000Y419666D01*
Y418000D01*
X48167Y417167D01*
X45668D01*
X50666Y415501D02*
X52332D01*
X51499D01*
Y420499D01*
X50666Y419666D01*
X100836Y408499D02*
Y403501D01*
X104169D01*
X105835Y408499D02*
Y403501D01*
X108334D01*
X109167Y404334D01*
Y407666D01*
X108334Y408499D01*
X105835D01*
X113332D02*
X111666D01*
X110833Y407666D01*
Y404334D01*
X111666Y403501D01*
X113332D01*
X114165Y404334D01*
Y407666D01*
X113332Y408499D01*
X119164Y403501D02*
X115831D01*
X119164Y406833D01*
Y407666D01*
X118331Y408499D01*
X116664D01*
X115831Y407666D01*
X96669Y513499D02*
Y508501D01*
X100002D01*
X101668Y513499D02*
Y508501D01*
X104167D01*
X105000Y509334D01*
Y512666D01*
X104167Y513499D01*
X101668D01*
X109165D02*
X107499D01*
X106666Y512666D01*
Y509334D01*
X107499Y508501D01*
X109165D01*
X109998Y509334D01*
Y512666D01*
X109165Y513499D01*
X111664Y508501D02*
X113331D01*
X112498D01*
Y513499D01*
X111664Y512666D01*
X8501Y106167D02*
Y104501D01*
Y105334D01*
X12666D01*
X13499Y104501D01*
Y103668D01*
X12666Y102835D01*
X13499Y111165D02*
Y107833D01*
X10167Y111165D01*
X9334D01*
X8501Y110332D01*
Y108666D01*
X9334Y107833D01*
X9501Y259000D02*
Y257334D01*
Y258167D01*
X13666D01*
X14499Y257334D01*
Y256501D01*
X13666Y255668D01*
X14499Y260666D02*
Y262332D01*
Y261499D01*
X9501D01*
X10334Y260666D01*
X549585Y443499D02*
X551251D01*
X550418D01*
Y438501D01*
X549585D01*
X551251D01*
X557083Y442666D02*
X556250Y443499D01*
X554584D01*
X553750Y442666D01*
Y439334D01*
X554584Y438501D01*
X556250D01*
X557083Y439334D01*
X558749Y438501D02*
X560415D01*
X559582D01*
Y443499D01*
X558749Y442666D01*
X216835Y437499D02*
Y432501D01*
X219334D01*
X220167Y433334D01*
Y436666D01*
X219334Y437499D01*
X216835D01*
X225165Y432501D02*
X221833D01*
X225165Y435833D01*
Y436666D01*
X224332Y437499D01*
X222666D01*
X221833Y436666D01*
X216668Y501499D02*
Y496501D01*
X219167D01*
X220000Y497334D01*
Y500666D01*
X219167Y501499D01*
X216668D01*
X221666Y496501D02*
X223332D01*
X222499D01*
Y501499D01*
X221666Y500666D01*
X475314Y468471D02*
X474481Y469304D01*
X472815D01*
X471982Y468471D01*
Y465139D01*
X472815Y464306D01*
X474481D01*
X475314Y465139D01*
X476980Y464306D02*
X478647D01*
X477813D01*
Y469304D01*
X476980Y468471D01*
X481146D02*
X481979Y469304D01*
X483645D01*
X484478Y468471D01*
Y465139D01*
X483645Y464306D01*
X481979D01*
X481146Y465139D01*
Y468471D01*
X255167Y465666D02*
X254334Y466499D01*
X252668D01*
X251835Y465666D01*
Y462334D01*
X252668Y461501D01*
X254334D01*
X255167Y462334D01*
X256833D02*
X257666Y461501D01*
X259332D01*
X260165Y462334D01*
Y465666D01*
X259332Y466499D01*
X257666D01*
X256833Y465666D01*
Y464833D01*
X257666Y464000D01*
X260165D01*
X341167Y466666D02*
X340334Y467499D01*
X338668D01*
X337835Y466666D01*
Y463334D01*
X338668Y462501D01*
X340334D01*
X341167Y463334D01*
X342833Y466666D02*
X343666Y467499D01*
X345332D01*
X346165Y466666D01*
Y465833D01*
X345332Y465000D01*
X346165Y464167D01*
Y463334D01*
X345332Y462501D01*
X343666D01*
X342833Y463334D01*
Y464167D01*
X343666Y465000D01*
X342833Y465833D01*
Y466666D01*
X343666Y465000D02*
X345332D01*
X619840Y161131D02*
X619007Y161964D01*
X617341D01*
X616508Y161131D01*
Y157799D01*
X617341Y156966D01*
X619007D01*
X619840Y157799D01*
X621506Y161964D02*
X624839D01*
Y161131D01*
X621506Y157799D01*
Y156966D01*
X579708Y499713D02*
X578875Y500546D01*
X577209D01*
X576376Y499713D01*
Y496381D01*
X577209Y495548D01*
X578875D01*
X579708Y496381D01*
X584707Y500546D02*
X583041Y499713D01*
X581374Y498047D01*
Y496381D01*
X582207Y495548D01*
X583873D01*
X584707Y496381D01*
Y497214D01*
X583873Y498047D01*
X581374D01*
X56667Y484166D02*
X55834Y484999D01*
X54168D01*
X53335Y484166D01*
Y480834D01*
X54168Y480001D01*
X55834D01*
X56667Y480834D01*
X61665Y484999D02*
X58333D01*
Y482500D01*
X59999Y483333D01*
X60832D01*
X61665Y482500D01*
Y480834D01*
X60832Y480001D01*
X59166D01*
X58333Y480834D01*
X56667Y469166D02*
X55834Y469999D01*
X54168D01*
X53335Y469166D01*
Y465834D01*
X54168Y465001D01*
X55834D01*
X56667Y465834D01*
X60832Y465001D02*
Y469999D01*
X58333Y467500D01*
X61665D01*
X146167Y415666D02*
X145334Y416499D01*
X143668D01*
X142835Y415666D01*
Y412334D01*
X143668Y411501D01*
X145334D01*
X146167Y412334D01*
X147833Y415666D02*
X148666Y416499D01*
X150332D01*
X151165Y415666D01*
Y414833D01*
X150332Y414000D01*
X149499D01*
X150332D01*
X151165Y413167D01*
Y412334D01*
X150332Y411501D01*
X148666D01*
X147833Y412334D01*
X56667Y501666D02*
X55834Y502499D01*
X54168D01*
X53335Y501666D01*
Y498334D01*
X54168Y497501D01*
X55834D01*
X56667Y498334D01*
X61665Y497501D02*
X58333D01*
X61665Y500833D01*
Y501666D01*
X60832Y502499D01*
X59166D01*
X58333Y501666D01*
X69000Y433666D02*
X68167Y434499D01*
X66501D01*
X65668Y433666D01*
Y430334D01*
X66501Y429501D01*
X68167D01*
X69000Y430334D01*
X70666Y429501D02*
X72332D01*
X71499D01*
Y434499D01*
X70666Y433666D01*
M02*
