M48
;Layer_Color=9474304
;FILE_FORMAT=4:4
METRIC,LZ
;TYPE=PLATED
T1F00S00C0.3000
T2F00S00C0.6900
T3F00S00C0.8100
T4F00S00C1.0200
T5F00S00C1.1000
%
T01
X00014Y00173
X00009Y00313
X00048Y00436
X00151419Y00427581
X00143Y00361
X00640906Y00409094
X00684Y00371
X00689Y00324
X00688Y00444
T02
X00732852Y00335
X00783652
X00758252Y003604
X00732852Y004176
X00758252Y00443
X00783652Y004176
T03
X00321Y0033
Y0044
X00551
Y0033
T04
X005877Y000676
X006131
X005623
X005369
X005115
X004861
X004607
X004353
X004099
X003845
X003591
X003337
X003083
X002829
X002575
X002321
X002067
X001813
X001559
X001305
X001051
X000797
X000543
X000289
Y0022
X000543
X000797
X001051
X001305
X001559
X001813
X002067
X002321
X002575
X002829
X003083
X003337
X003591
X003845
X004099
X004353
X004607
X004861
X005115
X005369
X005623
X005877
X006131
T05
X005877Y000168
X006131
X005623
X005369
X005115
X004861
X004607
X004353
X004099
X003845
X003591
X003337
X003083
X002829
X002575
X002321
X002067
X001813
X001559
X001305
X001051
X000797
X000543
X000289
Y002708
X000543
X000797
X001051
X001305
X001559
X00104642Y003377
X00079243
X001023Y00394231
X001277
X00016Y004133
Y004387
X001829Y00431
X002083
X002337
X002591
Y00361
X002337
X002083
X001829
X001813Y002708
X002067
X002321
X002575
X002829
X003083
X003337
X003591
X003845
X004099
X004353
X004607
X004861
X005115
X005369
X005623
X005877
X006131
X0070122Y0039775
Y0042315
M30
