M48
;Layer_Color=9474304
;FILE_FORMAT=4:4
METRIC,LZ
;TYPE=PLATED
T1F00S00C0.3000
T2F00S00C0.8100
T3F00S00C1.0200
T4F00S00C1.1000
%
T01
X00565Y003775
X005675Y004925
X0036Y004025
X00215Y004625
X000575Y00475
T02
X00445Y004138
X005212
Y0049
X00445
T03
X000379Y001076
X000633
X000887
X001141
X001395
X001649
X001903
X002157
X002411
X002665
X002919
X003173
X003427
X003681
X003935
X004189
X004443
X004697
X004951
X005205
X005459
X005713
X005967
X006221
Y0026
X005967
X005713
X005459
X005205
X004951
X004697
X004443
X004189
X003935
X003681
X003427
X003173
X002919
X002665
X002411
X002157
X001903
X001649
X001395
X001141
X000887
X000633
X000379
T04
X000379Y000568
X000633
X000887
X001141
X001395
X001649
X001903
X002157
X002411
X002665
X002919
X003173
X003427
X003681
X003935
X004189
X004443
X004697
X004951
X005205
X005459
X005713
X005967
X006221
X00505Y00023
X004951Y003108
X004697
X004443
X004189
X005205
X005459
X005713
X005967
X006221
X0063Y00367308
X006057Y0040125
X005803
X005207Y00344743
X004953
X00611Y00499
X0033735Y0049575
X0031195
X0028655
X0026115
Y00432058
X0028655
X0031195
X0033735
X003427Y003108
X003681
X003935
X003173
X002919
X002665
X002411
X002157
X001903
X001649
X001395
X001141
X000887
X000633
X000379
X00025Y004323
Y004577
X0017775Y0046755
Y0049295
Y00432107
Y00406707
M30
