G04*
G04 #@! TF.GenerationSoftware,Altium Limited,Altium Designer,20.1.12 (249)*
G04*
G04 Layer_Color=255*
%FSLAX44Y44*%
%MOMM*%
G71*
G04*
G04 #@! TF.SameCoordinates,FEBEC7C4-031D-4068-AE87-DD61D03ADA7D*
G04*
G04*
G04 #@! TF.FilePolarity,Positive*
G04*
G01*
G75*
%ADD12R,0.9400X0.8300*%
%ADD13R,1.5260X0.6500*%
%ADD14R,0.8300X0.9400*%
%ADD15R,0.6000X0.8000*%
%ADD24C,1.6000*%
D12*
X65000Y60058D02*
D03*
Y46858D02*
D03*
X158035Y87600D02*
D03*
Y74400D02*
D03*
X65000Y87600D02*
D03*
Y74400D02*
D03*
X173477Y100393D02*
D03*
Y87192D02*
D03*
X188920Y100600D02*
D03*
Y87400D02*
D03*
X204363Y100600D02*
D03*
Y87400D02*
D03*
X219805Y100600D02*
D03*
Y87400D02*
D03*
D13*
X84423Y87050D02*
D03*
Y74350D02*
D03*
Y61650D02*
D03*
Y48950D02*
D03*
X138663D02*
D03*
Y61650D02*
D03*
Y74350D02*
D03*
Y87050D02*
D03*
D14*
X108400Y104762D02*
D03*
X121600D02*
D03*
D15*
X216127Y62000D02*
D03*
Y72000D02*
D03*
X202085Y62000D02*
D03*
Y72000D02*
D03*
X188043Y62000D02*
D03*
Y72000D02*
D03*
X174000Y62000D02*
D03*
Y72000D02*
D03*
D24*
X245000Y130000D02*
D03*
Y20000D02*
D03*
X15000D02*
D03*
X130000Y130000D02*
D03*
X15000D02*
D03*
M02*
