G04*
G04 #@! TF.GenerationSoftware,Altium Limited,Altium Designer,20.1.12 (249)*
G04*
G04 Layer_Color=8388736*
%FSLAX44Y44*%
%MOMM*%
G71*
G04*
G04 #@! TF.SameCoordinates,FEBEC7C4-031D-4068-AE87-DD61D03ADA7D*
G04*
G04*
G04 #@! TF.FilePolarity,Negative*
G04*
G01*
G75*
%ADD16R,1.1432X1.0332*%
%ADD17R,1.7292X0.8532*%
%ADD18R,1.0332X1.1432*%
%ADD19R,0.8032X1.0032*%
%ADD20C,1.8032*%
%ADD21C,0.7016*%
D16*
X65000Y60058D02*
D03*
Y46858D02*
D03*
X158035Y87600D02*
D03*
Y74400D02*
D03*
X65000Y87600D02*
D03*
Y74400D02*
D03*
X173477Y100393D02*
D03*
Y87192D02*
D03*
X188920Y100600D02*
D03*
Y87400D02*
D03*
X204363Y100600D02*
D03*
Y87400D02*
D03*
X219805Y100600D02*
D03*
Y87400D02*
D03*
D17*
X84423Y87050D02*
D03*
Y74350D02*
D03*
Y61650D02*
D03*
Y48950D02*
D03*
X138663D02*
D03*
Y61650D02*
D03*
Y74350D02*
D03*
Y87050D02*
D03*
D18*
X108400Y104762D02*
D03*
X121600D02*
D03*
D19*
X216127Y62000D02*
D03*
Y72000D02*
D03*
X202085Y62000D02*
D03*
Y72000D02*
D03*
X188043Y62000D02*
D03*
Y72000D02*
D03*
X174000Y62000D02*
D03*
Y72000D02*
D03*
D20*
X245000Y130000D02*
D03*
Y20000D02*
D03*
X15000D02*
D03*
X130000Y130000D02*
D03*
X15000D02*
D03*
D21*
X155000Y20000D02*
D03*
X137000Y19000D02*
D03*
X133000Y105000D02*
D03*
X122000Y74000D02*
D03*
X151000Y96000D02*
D03*
M02*
