G04*
G04 #@! TF.GenerationSoftware,Altium Limited,Altium Designer,20.1.12 (249)*
G04*
G04 Layer_Color=16711935*
%FSLAX44Y44*%
%MOMM*%
G71*
G04*
G04 #@! TF.SameCoordinates,FEBEC7C4-031D-4068-AE87-DD61D03ADA7D*
G04*
G04*
G04 #@! TF.FilePolarity,Positive*
G04*
G01*
G75*
%ADD11C,0.1000*%
D11*
X232300Y142700D02*
X257700D01*
Y117300D02*
Y142700D01*
X232300Y117300D02*
X257700D01*
X232300D02*
Y142700D01*
Y32700D02*
X257700D01*
Y7300D02*
Y32700D01*
X232300Y7300D02*
X257700D01*
X232300D02*
Y32700D01*
X2300D02*
X27700D01*
Y7300D02*
Y32700D01*
X2300Y7300D02*
X27700D01*
X2300D02*
Y32700D01*
X117300Y142700D02*
X142700D01*
Y117300D02*
Y142700D01*
X117300Y117300D02*
X142700D01*
X117300D02*
Y142700D01*
X2300D02*
X27700D01*
Y117300D02*
Y142700D01*
X2300Y117300D02*
X27700D01*
X2300D02*
Y142700D01*
X61000Y45458D02*
X69000D01*
Y61458D01*
X61000D02*
X69000D01*
X61000Y45458D02*
Y61458D01*
X92043Y92510D02*
X131042D01*
Y43490D02*
Y92510D01*
X92043Y43490D02*
X131042D01*
X92043D02*
Y92510D01*
Y79810D02*
X104742Y92510D01*
X123000Y100763D02*
Y108763D01*
X107000D02*
X123000D01*
X107000Y100763D02*
Y108763D01*
Y100763D02*
X123000D01*
X162035Y73000D02*
Y89000D01*
X154035Y73000D02*
X162035D01*
X154035D02*
Y89000D01*
X162035D01*
X213627Y72000D02*
X218627D01*
X213627Y62000D02*
Y72000D01*
Y62000D02*
X218627D01*
Y72000D01*
X199585D02*
X204585D01*
X199585Y62000D02*
Y72000D01*
Y62000D02*
X204585D01*
Y72000D01*
X185543D02*
X190543D01*
X185543Y62000D02*
Y72000D01*
Y62000D02*
X190543D01*
Y72000D01*
X171500D02*
X176500D01*
X171500Y62000D02*
Y72000D01*
Y62000D02*
X176500D01*
Y72000D01*
X69000Y73000D02*
Y89000D01*
X61000Y73000D02*
X69000D01*
X61000D02*
Y89000D01*
X69000D01*
X169478Y85793D02*
X177477D01*
Y101792D01*
X169478D02*
X177477D01*
X169478Y85793D02*
Y101792D01*
X184920Y86000D02*
X192920D01*
Y102000D01*
X184920D02*
X192920D01*
X184920Y86000D02*
Y102000D01*
X200362Y86000D02*
X208362D01*
Y102000D01*
X200362D02*
X208362D01*
X200362Y86000D02*
Y102000D01*
X215805Y86000D02*
X223805D01*
Y102000D01*
X215805D02*
X223805D01*
X215805Y86000D02*
Y102000D01*
M02*
